<svg width="1139" height="102" viewBox="0 0 1139 102" fill="none" xmlns="http://www.w3.org/2000/svg">
<path d="M651.52 81H642.48L637.8 76.2V61L641.64 55.24H651.28L653.04 53.36H655.36V55.76L652.52 58.44H643.36L641 62.04V65H641.2L643.88 62.6H651.52L656.2 67.4V76.2L651.52 81ZM641 74.88L643.88 77.8H650.12L653 74.88V68.72L650.12 65.8H644.48L641 68.72V74.88ZM665.464 89.4H662.184V61H665.464V63.24H665.624L668.224 61H675.504L680.184 65.8V76.2L675.504 81H667.904L665.624 79.04H665.464V89.4ZM665.384 75.08L669.064 77.8H674.104L676.984 74.88V67.12L674.104 64.2H669.184L665.384 66.92V75.08ZM699.489 81H690.449L685.769 76.2V65.8L690.449 61H699.489L704.169 65.8V76.2L699.489 81ZM688.969 74.88L691.849 77.8H698.089L700.969 74.88V67.12L698.089 64.2H691.849L688.969 67.12V74.88ZM724.073 81H714.433L709.753 76.2V65.8L714.433 61H724.073L728.353 65.4L725.553 67.12L722.713 64.2H715.833L712.993 67.12V75L715.833 77.8H722.673L725.553 74.88L728.273 76.68L724.073 81ZM748.018 81H734.138V61H737.338V67.8H747.978L752.538 70.72V77.76L748.018 81ZM737.338 71V77.8H747.018L749.338 76.12V72.44L747.018 71H737.338ZM795.426 81H786.386L781.706 76.2V61L785.546 55.24H795.186L796.946 53.36H799.266V55.76L796.426 58.44H787.266L784.906 62.04V65H785.106L787.786 62.6H795.426L800.106 67.4V76.2L795.426 81ZM784.906 74.88L787.786 77.8H794.026L796.906 74.88V68.72L794.026 65.8H788.386L784.906 68.72V74.88ZM813.651 89.4H810.931V86.88L813.611 81.4L805.091 63.52V61H807.571L815.171 77.44H815.411L822.611 61H825.091V63.52L813.651 89.4ZM833.275 81H830.075V61H834.275L838.755 70.6H838.995L843.475 61H847.675V81H844.475L844.675 66.04H844.515L840.675 74.2H837.075L833.235 66.04H833.075L833.275 81ZM865.699 81H858.339L853.659 76.2V65.8L858.339 61H865.859L868.379 62.92H868.539L868.779 61H871.659V81H868.779V78.76H868.619L865.699 81ZM856.859 74.88L859.739 77.8H864.779L868.459 75.08V66.92L864.659 64.2H859.739L856.859 67.12V74.88ZM879.644 81H877.244V78.6L881.484 70.76L877.364 63.4V61H879.764L884.324 69.44H885.244V61H888.444V69.44H889.364L893.924 61H896.324V63.4L892.164 70.76L896.444 78.6V81H894.044L889.364 72.16H888.444V81H885.244V72.16H884.324L879.644 81ZM913.028 70.8V70.96L921.228 78.68V81H918.908L910.068 72.56H905.228V80.92H902.028V61H905.228V69.36H910.068L918.388 61H920.708V63.32L913.028 70.8ZM933.573 89.4H930.853V86.88L933.533 81.4L925.013 63.52V61H927.493L935.093 77.44H935.333L942.533 61H945.013V63.52L933.573 89.4ZM987.181 81H973.981V61H987.661L991.581 63.76V69L989.261 70.64V70.76L991.981 72.4V77.68L987.181 81ZM977.181 64.12V69.16H986.461L988.381 67.72V65.48L986.461 64.12H977.181ZM977.181 72.4V77.8H986.301L988.781 76.08V74.16L986.301 72.4H977.181ZM1023.95 81H1019.95V77.8H1022.11L1023.55 75.36V61H1039.55V81H1036.35V64.08H1026.75V76.2L1023.95 81ZM1053.49 89.4H1050.77V86.88L1053.45 81.4L1044.93 63.52V61H1047.41L1055.01 77.44H1055.25L1062.45 61H1064.93V63.52L1053.49 89.4ZM1073.12 81H1069.92V61H1073.12V69.2H1084.32V61H1087.52V81H1084.32V72.32H1073.12V81ZM1104.9 70.8V70.96L1113.1 78.68V81H1110.78L1101.94 72.56H1097.1V80.92H1093.9V61H1097.1V69.36H1101.94L1110.26 61H1112.58V63.32L1104.9 70.8ZM1125.45 89.4H1122.73V86.88L1125.41 81.4L1116.89 63.52V61H1119.37L1126.97 77.44H1127.21L1134.41 61H1136.89V63.52L1125.45 89.4Z" fill="white"/>
<path d="M3.29254 6.67732C2.56204 7.06804 2.28659 7.97697 2.67732 8.70746L9.0445 20.6116C9.43522 21.3421 10.3441 21.6176 11.0746 21.2268C11.8051 20.8361 12.0806 19.9272 11.6899 19.1967L6.03015 8.61522L16.6116 2.9555C17.3421 2.56478 17.6176 1.65585 17.2268 0.925353C16.8361 0.194855 15.9272 -0.080589 15.1967 0.310133L3.29254 6.67732ZM3.56497 9.43553C221.518 75.4843 355.219 89.3253 614.115 69.4956L613.885 66.5044C355.319 86.3089 221.994 72.494 4.43503 6.56447L3.56497 9.43553Z" fill="white"/>
</svg>
