<svg width="333" height="47" viewBox="0 0 333 47" fill="none" xmlns="http://www.w3.org/2000/svg">
<path d="M4 37H0V12H5.25L10.85 24H11.15L16.75 12H22V37H18L18.25 18.3H18.05L13.25 28.5H8.75L3.95 18.3H3.75L4 37Z" fill="white"/>
<path d="M51.6305 37H40.3305L34.4805 31V18L40.3305 12H51.6305L57.4805 18V31L51.6305 37ZM38.4805 29.35L42.0805 33H49.8805L53.4805 29.35V19.65L49.8805 16H42.0805L38.4805 19.65V29.35Z" fill="white"/>
<path d="M72.4609 37H67.4609V33H70.1609L71.9609 29.95V12H91.9609V37H87.9609V15.85H75.9609V31L72.4609 37Z" fill="white"/>
<path d="M121.591 37H110.291L104.441 31V18L110.291 12H121.591L127.441 18V31L121.591 37ZM108.441 29.35L112.041 33H119.841L123.441 29.35V19.65L119.841 16H112.041L108.441 19.65V29.35Z" fill="white"/>
<path d="M141.422 43H137.422V33H140.922L142.422 28.7V12H160.922V33H164.422V43H160.422V37H141.422V43ZM146.422 29.25L145.172 33H156.922V15.9H146.422V29.25Z" fill="white"/>
<path d="M192.302 37H180.252L174.402 31V18L180.252 12H191.802L197.652 18V26.35H178.402V29.35L182.002 33H190.552L194.152 29.35L197.552 31.6L192.302 37ZM178.402 19.65V22.55H193.652V19.65L190.052 16H182.002L178.402 19.65Z" fill="white"/>
<path d="M234.633 43H230.633V37H209.883V12H213.883V33.1H227.233V12H231.233V33.3H234.633V43Z" fill="white"/>
<path d="M289.144 37H283.344V31.1H289.144V37ZM289.144 15.6H283.344V9.7H289.144V15.6Z" fill="white"/>
<path d="M332.324 37.75L324.624 47H316.524V43H322.774L328.324 36.25V11.25L322.774 4.5H316.524V0.5H324.624L332.324 9.75V37.75Z" fill="white"/>
</svg>
