<svg width="57" height="29" viewBox="0 0 57 29" fill="none" xmlns="http://www.w3.org/2000/svg">
<path d="M55 11.8596C52.1229 11.8596 24.8065 12.2372 21.9568 11.8596C21.0334 11.7372 19.0848 11.9991 17.9619 11.8596C16.1215 11.6309 8.24679 13.0368 8.5868 10.3335C8.9763 7.23672 14.718 4.88272 16.8708 2.74318C19.8526 -0.220155 14.8362 6.56274 14.0421 7.64274C13.2001 8.78784 11.8452 9.05034 10.5669 9.49011C8.68802 10.1365 7.52239 11.8611 5.63688 12.3817C4.28391 12.7552 2 12.0981 2 14.1487C2 15.7952 5.70602 16.2612 7.01081 17.2009C11.0211 20.089 17.999 27 23.0939 27" stroke="white" stroke-width="3" stroke-linecap="round"/>
</svg>
