<svg width="158" height="135" viewBox="0 0 158 135" fill="none" xmlns="http://www.w3.org/2000/svg">
<path d="M13.9995 68.5142L39.8821 51.4821L48.2908 29.0784L109.969 5.54992L122.24 32.9973L67.7054 49.774L137 73L124.5 107.5L43.1229 122.456L36.5963 100.028L13.9995 68.5142Z" fill="white"/>
<path d="M9.27588 74.7581L37 112.5L114 129.5L103.5 115L122.667 117.5L130.5 103.665L99.0856 78.6411L122.667 76.4839L151.265 78.6411L154.276 52.3226L101.092 24.2782L69.4835 4L56.9402 13.0605L69.4835 28.1613L82 33L59 38L65.9714 48.5L61 56.2056L65.9714 76.4839L46 56.2056L29.5 68L46 91L9.27588 74.7581Z" fill="#D9D9D9"/>
<path d="M49.9328 69.1898L63.6021 58.2325L87.5984 46.3145L110.207 18.5186L134.821 39.0768L114.276 67.1397L123.471 75.5V95.6549H112.5L103.5 129L53.3343 120.63L34.7828 114.39L30.6791 97.9973L50.4447 110.582L72.8884 90.6569L49.9328 69.1898Z" fill="white"/>
<path d="M109.435 4.14842L86.2682 12.9858L70.2934 2.73747L69.4334 2.18575L68.6052 2.78405L56.0619 11.8445L54.7609 12.7843L55.7864 14.0189L62.4692 22.0643L47.7561 27.6769L47.1241 27.918L46.8864 28.5513L38.6495 50.4976L13.1749 67.2612L11.8707 68.1194L12.7805 69.3883L18.3244 77.1198L9.88259 73.3862L4.73446 71.1094L8.06699 75.6461L31.5354 107.595L33.3277 114.754L33.527 115.55L34.3045 115.811L40.2046 117.796L41.6827 122.875L42.0613 124.176L43.3941 123.932L53.2017 122.129L103.253 130.48L104.594 130.703L104.948 129.391L105.038 129.058L113.677 130.965L117.528 131.815L115.215 128.62L108.833 119.808L110.459 117.42L122.473 118.987L123.474 119.118L123.972 118.239L131.805 104.404L132.436 103.29L131.435 102.492L128.699 100.313L136.412 79.025L151.153 80.1369L152.592 80.2454L152.756 78.8116L155.766 52.493L155.883 51.4741L154.976 50.9958L135.48 40.7156L136.031 39.9629L136.863 38.8276L135.783 37.9256L120.309 25.0014L111.339 4.93771L110.76 3.64292L109.435 4.14842Z" stroke="#364E8B" stroke-width="3"/>
</svg>
