<svg width="98" height="84" viewBox="0 0 98 84" fill="none" xmlns="http://www.w3.org/2000/svg">
<path d="M19.0837 16.4079C17.6 16.7046 12.9113 19.76 9.54146 25.722C7.14193 29.9673 3.60267 35.5782 2.65712 40.411C1.15434 48.0919 2.87228 59.187 7.00125 65.7395C10.0369 70.557 14.5315 75.8646 19.9232 77.9988C28.2184 81.2823 36.5962 80.6851 45.2885 81.128C48.6818 81.3009 52.0486 81.6434 55.4493 81.6434C58.4615 81.6434 60.7022 80.1378 63.5485 79.3977C70.887 77.4897 76.6561 73.3189 81.5877 67.5066C86.082 62.2097 91.7236 57.6225 93.1475 50.6455C94.0237 46.352 95.5925 42.4062 95.9086 37.9813C96.0778 35.6124 96.6094 31.8302 95.5036 29.6612C93.07 24.8875 88.8918 20.8479 85.9318 16.4079C83.5386 12.818 77.5466 10.4987 73.9303 8.08778C70.4773 5.78578 66.9387 5.16923 63.1804 3.74365C59.2633 2.25787 47.3608 2.20712 43.0837 2.25992C40.0586 2.29727 27.9685 8.22068 27.0837 11.76" stroke="white" stroke-width="3" stroke-linecap="round"/>
<path d="M20.651 50.663C19.655 49.5621 15.3847 46.7663 15.0835 45.26C16.998 43.1276 20.3197 42.6843 20.3197 38.5878C20.3197 35.214 20.5406 38.1519 21.7923 39.1032C26.8516 42.9483 30.0828 47.9877 35.561 51.0311C40.1213 53.5646 40.7605 50.3845 43.5866 46.6502C46.6028 42.6644 48.2578 37.4513 51.5017 33.8019C52.9301 32.1949 54.215 30.8951 54.815 28.7951C55.7014 25.6928 58.846 23.8762 60.0059 20.8799C61.7955 16.2567 63.1381 12.8643 67.8106 16.0572C72.1094 18.9947 76.1261 20.9858 79.8122 24.6718C81.2434 26.1031 82.4208 30.1116 80.3276 31.6666C78.3674 33.1227 75.7911 32.5696 73.7746 34.3173C71.1982 36.5501 67.5215 37.5331 64.7182 39.545C60.7495 42.3931 57.1472 47.5631 53.5265 50.9575C49.8646 54.3906 46.0118 59.3073 44.1388 63.9899C42.9832 66.8787 41.7564 69.6988 38.8375 67.2664C35.0085 64.0756 30.0428 62.2008 26.5782 58.3204C24.3885 55.868 22.8291 53.0703 20.651 50.663Z" stroke="white" stroke-width="3" stroke-linecap="round"/>
</svg>
