<svg width="1440" height="1024" viewBox="0 0 1440 1024" fill="none" xmlns="http://www.w3.org/2000/svg">
<g clip-path="url(#clip0_80_204)">
<path d="M307.257 660.939C253.225 708.77 190.842 763.876 154.675 795.511C135.33 812.441 125.071 826.605 120.988 841.943L-0.489624 881.834V228.222C42.8884 239.039 84.2417 249.329 123.571 259.092C56.3292 535.368 -136.718 549.972 298.61 658.766L307.257 660.939Z" fill="#F86B6B" stroke="white" stroke-miterlimit="10"/>
<path d="M156.431 1043.49H-0.489624V928.409C25.0308 960.749 70.3042 988.026 148.775 999.843C151.439 1013.21 154.032 1027.7 156.431 1043.49Z" fill="#F86B6B" stroke="white" stroke-miterlimit="10"/>
<path d="M305.674 1004L283.124 1043.49H156.431C154.032 1027.7 151.439 1013.21 148.775 999.864C190.832 1006.21 242.465 1008.13 305.674 1004Z" fill="#F86B6B" stroke="white" stroke-miterlimit="10"/>
<path d="M980.517 938.38C980.517 938.38 968.063 991.108 938.98 1043.49H283.125L305.674 1004C350.886 1001.05 402.04 995.017 459.9 985.322C600.283 961.779 725.435 910.143 837.725 845.842C946.024 900.938 980.517 938.38 980.517 938.38Z" fill="#F86B6B" stroke="white" stroke-miterlimit="10"/>
<path d="M837.725 845.842C725.435 910.132 600.283 961.779 459.9 985.322C402.04 995.017 350.887 1001.05 305.674 1004L462.217 729.853L504.54 715.913C657.469 763.243 764.481 808.584 837.725 845.842Z" fill="#F86B6B" stroke="white" stroke-miterlimit="10"/>
<path d="M475.212 707.045L462.186 729.853L120.988 841.943C125.132 826.636 135.361 812.441 154.675 795.511C190.842 763.876 253.225 708.77 307.257 660.939C368.353 676.328 424.171 691.768 475.212 707.045Z" fill="#F86B6B" stroke="white" stroke-miterlimit="10"/>
<path d="M504.54 715.913L462.217 729.812L475.212 707.045C485.189 710.018 494.965 712.974 504.54 715.913Z" fill="#F86B6B" stroke="white" stroke-miterlimit="10"/>
<path d="M1311.91 57.3006C789.441 -114.764 915.185 420.186 915.185 428.136C915.185 433.177 904.293 440.943 663.124 387.53C751.027 248.315 870.004 76.4959 965.654 -1.48975H1289.65C1295.17 12.5624 1302.91 32.6762 1311.91 57.3006Z" fill="#F86B6B" stroke="white" stroke-miterlimit="10"/>
<path d="M965.654 -1.48975C870.003 76.4959 751.027 248.315 663.124 387.53C647.975 384.183 631.897 380.584 614.891 376.734C695.709 288.747 763.359 192.923 734.5 141.379C701.732 82.8536 696.383 32.7986 698.669 -1.48975H965.654Z" fill="#F86B6B" stroke="white" stroke-miterlimit="10"/>
<path d="M614.891 376.734C597.142 372.713 578.318 368.403 558.419 363.804C542.504 321.821 533.399 293.431 533.399 293.431C533.399 293.431 540.881 179.637 455.377 -1.48975H698.669C696.383 32.7986 701.732 82.8536 734.5 141.379C763.358 192.923 695.709 288.747 614.891 376.734Z" fill="#F86B6B" stroke="white" stroke-miterlimit="10"/>
<path d="M123.571 259.092C140.322 190.301 149.265 105.263 138.76 -1.48975H455.378C540.881 179.637 533.399 293.431 533.399 293.431C533.399 293.431 542.504 321.821 558.419 363.845C449.814 338.741 308.206 304.799 123.571 259.092Z" fill="#F86B6B" stroke="white" stroke-miterlimit="10"/>
<path d="M123.571 259.092C84.2077 249.329 42.8543 239.039 -0.489624 228.222V-1.48975H138.76C149.265 105.263 140.322 190.301 123.571 259.092Z" fill="#F86B6B" stroke="white" stroke-miterlimit="10"/>
<path d="M663.124 387.53C642.33 420.451 623.312 451.546 606.683 479.14C596.475 457.026 587.033 435.259 578.621 414.849C590.871 402.419 602.998 389.643 614.891 376.703C631.918 380.574 647.996 384.183 663.124 387.53Z" fill="#F86B6B" stroke="white" stroke-miterlimit="10"/>
<path d="M614.891 376.734C602.998 389.673 590.82 402.45 578.621 414.88C571.036 396.511 564.268 379.234 558.419 363.804C578.339 368.41 597.162 372.72 614.891 376.734Z" fill="#F86B6B" stroke="white" stroke-miterlimit="10"/>
<path d="M578.621 414.869C494.771 500.345 409.88 569.983 409.88 569.983C409.88 569.983 363.014 611.568 307.257 660.939L298.61 658.766C-136.718 549.972 56.3292 535.368 123.571 259.092C308.206 304.799 449.814 338.69 558.439 363.804C564.268 379.234 571.036 396.5 578.621 414.869Z" stroke="white" stroke-miterlimit="10"/>
<path d="M1469.49 -1.48975V117.387C1435.21 103.457 1397.54 88.6806 1356.18 73.0059C1340.93 67.2299 1326.17 61.9948 1311.92 57.3006C1302.92 32.6762 1295.18 12.5624 1289.66 -1.48975H1469.49Z" fill="#F86B6B" stroke="white" stroke-miterlimit="10"/>
<path d="M1469.49 117.387V313.77C1443.38 308.82 1417.32 310.708 1392.02 317.29C1367.99 218.058 1335.58 122.061 1311.92 57.3005C1326.21 62.0084 1340.96 67.2435 1356.18 73.0058C1397.54 88.6805 1435.21 103.457 1469.49 117.387Z" fill="#F86B6B" stroke="white" stroke-miterlimit="10"/>
<path d="M1311.92 57.3006C1335.58 122.061 1367.99 218.058 1392.02 317.29C1344.99 329.536 1300.57 357.957 1263.29 388.939L1150.99 166.891L998.606 553.656L707.673 649.224C669.78 604.088 635.021 540.277 606.683 479.16C623.282 451.607 642.33 420.472 663.124 387.551C904.293 440.943 915.185 433.177 915.185 428.136C915.185 420.186 789.44 -114.764 1311.91 57.3006H1311.92Z" stroke="white" stroke-miterlimit="10"/>
<path d="M1469.49 796.634V922.613C1419.82 968.3 1366.39 1009.13 1316.85 1043.49H1112.68C1203.11 953.911 1344.9 799.256 1400.85 660.888L1469.49 796.634Z" fill="#F86B6B" stroke="white" stroke-miterlimit="10"/>
<path d="M1400.84 660.889C1344.89 799.256 1203.06 953.911 1112.67 1043.49H938.98C968.063 991.108 980.517 938.38 980.517 938.38C980.517 938.38 946.024 900.938 837.735 845.842C1028.99 736.323 1182.88 590.036 1311.03 483.324L1400.84 660.889Z" stroke="white" stroke-miterlimit="10"/>
<path d="M1469.49 922.613V1043.49H1316.85C1366.39 1009.13 1419.82 968.3 1469.49 922.613Z" fill="#F86B6B" stroke="white" stroke-miterlimit="10"/>
<path d="M606.683 479.16C565.565 547.533 539.524 594.475 539.524 594.475L475.212 707.045C424.171 691.738 368.322 676.328 307.226 660.94C363.014 611.568 409.88 569.983 409.88 569.983C409.88 569.983 494.771 500.345 578.621 414.869C587.033 435.279 596.434 457.026 606.683 479.16Z" fill="#F86B6B" stroke="white" stroke-miterlimit="10"/>
<path d="M707.632 649.245L504.54 715.913C494.951 712.954 485.185 709.984 475.243 707.004L539.524 594.475C539.524 594.475 565.565 547.533 606.683 479.16C635.021 540.277 669.78 604.088 707.632 649.245Z" fill="#F86B6B" stroke="white" stroke-miterlimit="10"/>
<path d="M1263.28 388.939C1199.9 441.616 1157.12 501.611 1157.12 501.611L998.606 553.656L1150.99 166.891L1263.28 388.939Z" fill="#F86B6B" stroke="white" stroke-miterlimit="10"/>
<path d="M1469.49 370.223V796.634L1400.84 660.909C1414.92 626.11 1423.55 592.271 1424.57 560.799C1426.08 513.979 1420.49 460.791 1410.8 406.083C1429.6 392.918 1449.2 380.941 1469.49 370.223Z" fill="#F86B6B" stroke="white" stroke-miterlimit="10"/>
<path d="M1424.57 560.799C1423.55 592.271 1414.92 626.11 1400.84 660.888L1311.01 483.324C1346.12 454.087 1379.3 427.809 1410.78 406.083C1420.49 460.791 1426.08 513.979 1424.57 560.799Z" fill="#F86B6B" stroke="white" stroke-miterlimit="10"/>
<path d="M998.606 553.656L980.517 599.578C980.517 599.578 949.893 701.626 810.041 710.811C775.006 713.107 740.176 688.074 707.632 649.245L998.606 553.656Z" fill="#F86B6B" stroke="white" stroke-miterlimit="10"/>
<path d="M1469.49 313.77V370.223C1449.2 380.941 1429.6 392.918 1410.8 406.083C1405.6 376.693 1399.18 346.895 1392.02 317.3C1417.32 310.708 1443.38 308.82 1469.49 313.77Z" fill="#F86B6B" stroke="white" stroke-miterlimit="10"/>
<path d="M462.217 729.853L305.674 1004C242.384 1008.13 190.832 1006.21 148.775 999.915C131.747 914.49 111.892 875.415 120.957 841.994L462.217 729.853Z" fill="#F86B6B" stroke="white" stroke-miterlimit="10"/>
<path d="M1311.03 483.324C1182.88 590.036 1028.99 736.323 837.735 845.842C764.481 808.584 657.469 763.243 504.54 715.913L707.632 649.204C740.176 688.034 775.006 713.066 810.041 710.77C949.893 701.586 980.517 599.537 980.517 599.537L998.606 553.615L1157.12 501.611C1157.12 501.611 1199.9 441.616 1263.28 388.939L1311.03 483.324Z" fill="#F86B6B" stroke="white" stroke-miterlimit="10"/>
<path d="M148.775 999.864C70.3042 988.026 25.0308 960.749 -0.489624 928.409V881.834L120.988 841.943C111.892 875.405 131.747 914.439 148.775 999.864Z" fill="#F86B6B" stroke="white" stroke-miterlimit="10"/>
<path d="M1410.8 406.083C1379.32 427.809 1346.14 454.046 1311.03 483.324L1263.28 388.939C1300.56 357.957 1344.95 329.506 1392.01 317.29C1399.18 346.854 1405.6 376.693 1410.8 406.083Z" fill="#F86B6B" stroke="white" stroke-miterlimit="10"/>
</g>
<defs>
<clipPath id="clip0_80_204">
<rect width="1471" height="1046" fill="white" transform="translate(-1 -2)"/>
</clipPath>
</defs>
</svg>
