<svg width="93" height="35" viewBox="0 0 93 35" fill="none" xmlns="http://www.w3.org/2000/svg">
<path d="M90.5504 14.1226C83.8342 13.4715 77.273 15.3349 70.4689 14.8127C64.6376 14.3653 59.1425 14.1627 53.2884 14.6071C44.2686 15.2918 35.8595 14.0349 26.9354 12.7276C21.8976 11.9896 16.8598 11.2516 11.822 10.5136C10.2586 10.2845 7.96987 10.3644 6.47605 9.69374C4.31757 8.72465 13.7167 3.40061 14.7662 3.02072C18.4461 1.68875 20.4296 0.966512 16.1986 4.58794C12.0777 8.11521 7.92643 13.6743 2.09749 14.3718C-0.856166 14.7252 8.20703 21.7395 8.88202 22.2626C11.7013 24.4474 13.6821 27.3413 16.4173 29.5664C17.7089 30.6171 19.5294 31.5171 19.2544 33.3938" stroke="white" stroke-width="3" stroke-linecap="round"/>
</svg>
