<svg width="186" height="132" viewBox="0 0 186 132" fill="none" xmlns="http://www.w3.org/2000/svg">
<path d="M2.56669 118.393C2.56669 108.661 2.56669 98.9293 2.56669 89.1973C2.56669 74.8602 0.679202 59.1015 3.79365 44.994C6.46369 32.8995 10.1125 16.475 20.0167 7.88498C27.2948 1.57262 37.6339 -0.879399 44.2831 6.72533C49.2063 12.356 49.1021 23.627 51.713 30.5324C54.4183 37.6874 58.7316 44.2713 61.3241 51.4062C61.8092 52.7411 61.0186 54.881 62.8237 52.4294C65.6038 48.6536 67.7045 44.7271 72.6394 43.6297C81.6071 41.6353 90.0749 38.9188 98.8825 36.2624C108.89 33.2442 118.69 33.0816 128.943 32.1695C138.644 31.3066 151.738 29.6194 159.617 37.2174C168.279 45.5712 173.513 62.0539 178.157 72.6892C181.245 79.7604 183.428 85.054 182.929 92.8809C181.988 107.625 160.61 115.058 149.188 119.007C133.084 124.574 116.887 122.468 100.655 125.829C87.0167 128.653 75.964 131.679 62.0739 128.898C50.3938 126.561 37.2725 126.471 25.4017 125.829C20.6176 125.57 11.1554 128.471 11.1554 122.077" stroke="white" stroke-width="3" stroke-linecap="round"/>
<path d="M171 52C164.105 52 158.938 55.1261 152.196 55.9658C139.554 57.5403 127.043 58.1538 114.314 58.1538C106.276 58.1538 97.5557 56.5988 90.7059 61.0256C87.1777 63.3058 80.7338 62.4237 76.7059 63.6239C73.0044 64.7269 69.5751 66.5752 66 68" stroke="white" stroke-width="3" stroke-linecap="round"/>
<path d="M184 90.911C162.444 90.911 140.888 90.911 119.331 90.911C104.883 90.911 89.8309 89.9397 75.4272 90.9641C70.5138 91.3135 74.2044 89 76.5129 89" stroke="white" stroke-width="3" stroke-linecap="round"/>
</svg>
