<svg width="1039" height="48" viewBox="0 0 1039 48" fill="none" xmlns="http://www.w3.org/2000/svg">
<path d="M19.7 37H6.75L0.8 30.85V17.85L6.75 11.75H19.7L25.05 17.25L20.45 20.05L17.45 16.95H9L6.05 20.05V28.75L9 31.8H17.45L20.45 28.7L24.9 31.65L19.7 37ZM39.2805 43H34.0805V31.8H37.7305L39.2305 27.5V11.75H58.1305V31.8H61.8805V43H56.6805V37H39.2805V43ZM44.4305 28.05L43.1805 31.8H52.8805V16.85H44.4305V28.05ZM90.0109 37H76.9109L70.9609 30.85V17.85L76.9109 11.75H89.2609L95.2109 17.85V26.55H76.0109V28.95L78.9609 31.85H87.7609L90.7109 28.85L95.1109 31.75L90.0109 37ZM76.0109 19.8V22.1H90.1609V19.8L87.2609 16.9H78.9609L76.0109 19.8ZM110.241 37H104.191V31.9H107.141L108.691 29.45V11.75H129.741V37H124.491V16.9H113.891V30.75L110.241 37ZM156.572 37H146.872L140.922 30.85V17.85L146.872 11.75H156.772L159.672 13.95H159.822L160.072 11.75H164.422V37H159.972L159.922 34.5H159.772L156.572 37ZM146.072 28.7L149.122 31.85H155.472L159.372 28.8V19.9L155.272 16.9H149.122L146.072 20.05V28.7ZM181.302 37H176.402V11.75H181.602V28.15H182.002L194.002 11.75H199.402V37H194.202V19.7H193.802L181.302 37ZM192.802 8.5H183.052L179.652 5.05V0.299999H184.402V3.05L185.452 4.1H190.402L191.452 3V0.299999H196.202V5.05L192.802 8.5ZM263.613 37H246.363V12H264.113L269.313 15.7V22.15L266.113 24.05V24.2L269.563 26.15V32.85L263.613 37ZM251.513 17V22H262.063L264.163 20.45V18.5L262.063 17H251.513ZM251.513 26.55V31.95H261.963L264.413 30.2V28.3L261.963 26.55H251.513ZM299.544 37H286.594L280.644 30.85V17.85L286.594 11.75H299.544L304.894 17.25L300.294 20.05L297.294 16.95H288.844L285.894 20.05V28.75L288.844 31.8H297.294L300.294 28.7L304.744 31.65L299.544 37ZM334.874 37H321.774L315.824 30.85V17.85L321.774 11.75H334.124L340.074 17.85V26.55H320.874V28.95L323.824 31.85H332.624L335.574 28.85L339.974 31.75L334.874 37ZM320.874 19.8V22.1H335.024V19.8L332.124 16.9H323.824L320.874 19.8ZM401.485 24.05V24.35L411.035 33.3V37H407.085L397.085 27.1H391.235V36.9H385.985V11.75H391.235V21.85H397.085L406.535 11.75H410.385V15.4L401.485 24.05ZM431.516 47.5H427.266V43.5L430.466 37.1L420.366 15.8V11.75H424.416L432.916 30.6H433.266L441.466 11.75H445.516V15.65L431.516 47.5ZM474.446 37H461.496L455.546 30.85V17.85L461.496 11.75H474.446L479.796 17.25L475.196 20.05L472.196 16.95H463.746L460.796 20.05V28.75L463.746 31.8H472.196L475.196 28.7L479.646 31.65L474.446 37ZM508.777 37H496.677L490.727 30.85V17.85L496.677 11.75H508.777L514.727 17.85V30.85L508.777 37ZM495.927 28.7L498.927 31.8H506.527L509.527 28.7V20.05L506.527 16.95H498.927L495.927 20.05V28.7ZM549.507 37H544.357V27.1H544.157L541.557 29.65H530.807L525.407 23.75V11.75H530.657V21.75L533.107 24.45H540.057L544.257 20.75V11.75H549.507V37ZM576.388 24.05V24.35L585.937 33.3V37H581.988L571.988 27.1H566.138V36.9H560.888V11.75H566.138V21.85H571.988L581.438 11.75H585.288V15.4L576.388 24.05ZM601.068 37H596.168V11.75H601.368V28.15H601.768L613.768 11.75H619.168V37H613.968V19.7H613.568L601.068 37ZM671.079 37H665.829V11.75H689.429V37H684.179V16.85H671.079V37ZM718.659 37H706.559L700.609 30.85V17.85L706.559 11.75H718.659L724.609 17.85V30.85L718.659 37ZM705.809 28.7L708.809 31.8H716.409L719.409 28.7V20.05L716.409 16.95H708.809L705.809 20.05V28.7ZM738.89 43H733.69V31.8H737.34L738.84 27.5V11.75H757.74V31.8H761.49V43H756.29V37H738.89V43ZM744.04 28.05L742.79 31.8H752.49V16.85H744.04V28.05ZM773.87 37H769.92V33.05L779.47 24.35L770.77 15.65V11.75H774.67L782.57 20.15H782.77L790.72 11.75H794.67V15.65L785.92 24.35L795.22 33.05V37H791.27L782.77 28.3H782.57L773.87 37ZM823.601 37H811.501L805.551 30.85V17.85L811.501 11.75H823.601L829.551 17.85V30.85L823.601 37ZM810.751 28.7L813.751 31.8H821.351L824.351 28.7V20.05L821.351 16.95H813.751L810.751 20.05V28.7ZM843.831 43H838.631V31.8H842.281L843.781 27.5V11.75H862.681V31.8H866.431V43H861.231V37H843.831V43ZM848.981 28.05L847.731 31.8H857.431V16.85H848.981V28.05ZM879.362 37H875.412V33.2L883.762 28.1V27.9H881.062L875.212 24.2V15.95L880.962 11.75H899.312V37H894.062V28.05H890.512L879.362 37ZM880.462 21.6L882.812 23.15H894.062V16.85H882.812L880.462 18.5V21.6ZM931.692 37H910.992V11.75H915.892V32.1H920.392V11.75H924.642V32.1H929.092V11.75H934.042V31.9H936.892V42.75H931.692V37ZM950.873 37H945.973V11.75H951.173V28.15H951.573L963.573 11.75H968.973V37H963.773V19.7H963.373L950.873 37ZM985.753 37H980.653V11.75H987.103L992.253 22.9H992.653L997.803 11.75H1004.25V37H999.153L999.253 20.1H998.953L994.653 29.3H990.253L985.953 20.1H985.653L985.753 37ZM1020.83 37H1015.93V11.75H1021.13V28.15H1021.53L1033.53 11.75H1038.93V37H1033.73V19.7H1033.33L1020.83 37Z" fill="white"/>
</svg>
