<svg width="1031" height="378" viewBox="0 0 1031 378" fill="none" xmlns="http://www.w3.org/2000/svg">
<path d="M16.824 36H5.976L0.36 30.24V17.76L5.976 12H16.824L22.44 17.76V30.24L16.824 36ZM4.2 28.656L7.656 32.16H15.144L18.6 28.656V19.344L15.144 15.84H7.656L4.2 19.344V28.656ZM45.6053 36H34.7573L29.1413 30.24V12L33.7493 5.088H45.3173L47.4293 2.832H50.2133V5.712L46.8053 8.928H35.8133L32.9813 13.248V16.8H33.2213L36.4373 13.92H45.6053L51.2213 19.68V30.24L45.6053 36ZM32.9813 28.656L36.4373 32.16H43.9253L47.3813 28.656V21.264L43.9253 17.76H37.1573L32.9813 21.264V28.656ZM62.3385 46.08H58.4025V12H62.3385V14.688H62.5305L65.6505 12H74.3865L80.0025 17.76V30.24L74.3865 36H65.2665L62.5305 33.648H62.3385V46.08ZM62.2425 28.896L66.6585 32.16H72.7065L76.1625 28.656V19.344L72.7065 15.84H66.8025L62.2425 19.104V28.896ZM101.152 36H92.3198L86.7038 30.24V17.76L92.3198 12H101.344L104.368 14.304H104.56L104.848 12H108.304V36H104.848V33.312H104.656L101.152 36ZM90.5438 28.656L93.9998 32.16H100.048L104.464 28.896V19.104L99.9038 15.84H93.9998L90.5438 19.344V28.656ZM131.805 36H121.101L115.485 31.296V27.888H119.325V29.568L122.493 32.208H130.557L133.725 30.096V27.264L131.037 25.44H122.349V22.08H131.037L133.725 20.496V17.904L130.557 15.792H122.973L119.805 18.432V20.112H115.965V16.704L121.581 12H131.805L137.565 15.984V22.08L134.445 23.664V23.856L137.565 25.44V32.016L131.805 36ZM160.73 36H149.882L144.266 30.24V17.76L149.882 12H160.73L166.346 17.76V30.24L160.73 36ZM148.106 28.656L151.562 32.16H159.05L162.506 28.656V19.344L159.05 15.84H151.562L148.106 19.344V28.656ZM189.368 36H173.528V12H189.944L194.648 15.312V21.6L191.864 23.568V23.712L195.128 25.68V32.016L189.368 36ZM177.368 15.744V21.792H188.504L190.808 20.064V17.376L188.504 15.744H177.368ZM177.368 25.68V32.16H188.312L191.288 30.096V27.792L188.312 25.68H177.368ZM216.277 36H207.445L201.829 30.24V17.76L207.445 12H216.469L219.493 14.304H219.685L219.973 12H223.429V36H219.973V33.312H219.781L216.277 36ZM205.669 28.656L209.125 32.16H215.173L219.589 28.896V19.104L215.029 15.84H209.125L205.669 19.344V28.656ZM243.618 36H239.682L239.778 15.696H229.65V12H253.65V15.696H243.522L243.618 36ZM276.575 36H265.007L259.391 30.24V17.76L265.007 12H276.095L281.711 17.76V25.776H263.231V28.656L266.687 32.16H274.895L278.351 28.656L281.615 30.816L276.575 36ZM263.231 19.344V22.128H277.871V19.344L274.415 15.84H266.687L263.231 19.344ZM291.053 36H286.253V32.16H288.845L290.573 29.232V12H309.773V36H305.933V15.696H294.413V30.24L291.053 36ZM334.09 36H317.434V12H321.274V20.16H334.042L339.514 23.664V32.112L334.09 36ZM321.274 24V32.16H332.89L335.674 30.144V25.728L332.89 24H321.274ZM350.055 36H346.215V12H350.055V21.84H363.495V12H367.335V36H363.495V25.584H350.055V36ZM383.924 36H374.996V12H378.836V20.16H383.972L389.396 23.856V32.016L383.924 36ZM396.116 36H392.372V12H396.116V36ZM378.836 24V32.16H382.964L385.652 30.192V25.728L382.964 24H378.836ZM407.33 36H403.778V12H407.618V28.704H408.002L420.674 12H424.898V36H421.058V18.144H420.674L407.33 36ZM418.658 8.64H410.066L406.562 5.088V0.767999H410.306V3.792L411.554 5.04H417.17L418.418 3.744V0.767999H422.162V5.088L418.658 8.64ZM465.18 36H461.34V12H482.46V36H478.62V15.744H465.18V36ZM492.521 36H487.721V32.16H490.313L492.041 29.232V12H511.241V36H507.401V15.696H495.881V30.24L492.521 36ZM532.871 36H524.039L518.423 30.24V17.76L524.039 12H533.063L536.087 14.304H536.279L536.567 12H540.023V36H536.567V33.312H536.375L532.871 36ZM522.263 28.656L525.719 32.16H531.767L536.183 28.896V19.104L531.623 15.84H525.719L522.263 19.344V28.656ZM560.884 23.76V23.952L570.724 33.216V36H567.94L557.332 25.872H551.524V35.904H547.684V12H551.524V22.032H557.332L567.316 12H570.1V14.784L560.884 23.76ZM590.433 36H581.601L575.985 30.24V17.76L581.601 12H590.625L593.649 14.304H593.841L594.129 12H597.585V36H594.129V33.312H593.937L590.433 36ZM579.825 28.656L583.281 32.16H589.329L593.745 28.896V19.104L589.185 15.84H583.281L579.825 19.344V28.656ZM617.774 36H613.838L613.934 15.696H603.806V12H627.806V15.696H617.678L617.774 36ZM664.249 41.76H660.409V32.16H663.769L665.209 28.032V12H682.969V32.16H686.329V41.76H682.489V36H664.249V41.76ZM669.049 28.56L667.849 32.16H679.129V15.744H669.049V28.56ZM693.99 36H689.19V32.16H691.782L693.51 29.232V12H712.71V36H708.87V15.696H697.35V30.24L693.99 36ZM723.011 36H719.987V33.216L728.627 27.408V27.216H725.507L719.891 23.856V15.888L725.315 12H741.491V36H737.651V27.216H734.339L723.011 36ZM723.731 21.792L726.515 23.52H737.651V15.84H726.515L723.731 17.856V21.792ZM781.774 36H777.934V12H799.054V36H795.214V15.744H781.774V36ZM820.683 36H811.851L806.235 30.24V17.76L811.851 12H820.875L823.899 14.304H824.091L824.379 12H827.835V36H824.379V33.312H824.187L820.683 36ZM810.075 28.656L813.531 32.16H819.579L823.995 28.896V19.104L819.435 15.84H813.531L810.075 19.344V28.656ZM851.336 36H840.632L835.016 31.296V27.888H838.856V29.568L842.024 32.208H850.088L853.256 30.096V27.264L850.568 25.44H841.88V22.08H850.568L853.256 20.496V17.904L850.088 15.792H842.504L839.336 18.432V20.112H835.496V16.704L841.112 12H851.336L857.096 15.984V22.08L853.976 23.664V23.856L857.096 25.44V32.016L851.336 36ZM866.678 36H861.878V32.16H864.47L866.198 29.232V12H885.398V36H881.558V15.696H870.038V30.24L866.678 36ZM909.043 36H898.195L892.579 30.24V17.76L898.195 12H909.043L914.659 17.76V30.24L909.043 36ZM896.419 28.656L899.875 32.16H907.363L910.819 28.656V19.344L907.363 15.84H899.875L896.419 19.344V28.656ZM937.68 36H921.84V12H938.256L942.96 15.312V21.6L940.176 23.568V23.712L943.44 25.68V32.016L937.68 36ZM925.68 15.744V21.792H936.816L939.12 20.064V17.376L936.816 15.744H925.68ZM925.68 25.68V32.16H936.624L939.6 30.096V27.792L936.624 25.68H925.68ZM959.549 36H953.981V30.336H959.549V36ZM4.68 84H0.84V60H4.68V69.84H18.12V60H21.96V84H18.12V73.584H4.68V84ZM43.5893 84H34.7573L29.1413 78.24V65.76L34.7573 60H43.7813L46.8053 62.304H46.9973L47.2853 60H50.7413V84H47.2853V81.312H47.0933L43.5893 84ZM32.9813 76.656L36.4373 80.16H42.4853L46.9013 76.896V67.104L42.3413 63.84H36.4373L32.9813 67.344V76.656ZM91.0238 84H87.1838V60H91.0238V69.84H104.464V60H108.304V84H104.464V73.584H91.0238V84ZM132.669 84H121.101L115.485 78.24V65.76L121.101 60H132.189L137.805 65.76V73.776H119.325V76.656L122.781 80.16H130.989L134.445 76.656L137.709 78.816L132.669 84ZM119.325 67.344V70.128H133.965V67.344L130.509 63.84H122.781L119.325 67.344ZM148.586 84H144.746V60H149.786L155.162 71.52H155.45L160.826 60H165.866V84H162.026L162.266 66.048H162.074L157.466 75.84H153.146L148.538 66.048H148.346L148.586 84ZM219.013 84H207.445L201.829 78.24V65.76L207.445 60H219.013L224.149 65.28L220.789 67.344L217.381 63.84H209.125L205.717 67.344V76.8L209.125 80.16H217.333L220.789 76.656L224.053 78.816L219.013 84ZM263.711 84H259.871V60H280.991V84H277.151V63.744H263.711V84ZM304.637 84H293.789L288.173 78.24V65.76L293.789 60H304.637L310.253 65.76V78.24L304.637 84ZM292.013 76.656L295.469 80.16H302.957L306.413 76.656V67.344L302.957 63.84H295.469L292.013 67.344V76.656ZM321.274 84H317.434V60H322.474L327.85 71.52H328.138L333.514 60H338.554V84H334.714L334.954 66.048H334.762L330.154 75.84H325.834L321.226 66.048H321.034L321.274 84ZM362.199 84H351.351L345.735 78.24V65.76L351.351 60H362.199L367.815 65.76V78.24L362.199 84ZM349.575 76.656L353.031 80.16H360.519L363.975 76.656V67.344L360.519 63.84H353.031L349.575 67.344V76.656ZM395.06 84H374.996V60H378.788V80.304H383.828V60H387.188V80.304H392.228V60H396.02V80.448H398.9V89.28H395.06V84ZM420.434 84H403.778V60H407.618V68.16H420.386L425.858 71.664V80.112L420.434 84ZM407.618 72V80.16H419.234L422.018 78.144V73.728L419.234 72H407.618ZM435.583 84H431.839V60H435.583V70.128H438.415V65.952L443.695 60H449.071L454.399 65.952V78.24L449.023 84H443.743L438.415 78.24V73.872H435.583V84ZM442.255 67.44V76.752L445.423 80.16H447.343L450.559 76.752V67.44L447.391 63.84H445.375L442.255 67.44ZM494.057 94.08H490.121V60H494.057V62.688H494.249L497.369 60H506.105L511.721 65.76V78.24L506.105 84H496.985L494.249 81.648H494.057V94.08ZM493.961 76.896L498.377 80.16H504.425L507.881 76.656V67.344L504.425 63.84H498.521L493.961 67.104V76.896ZM532.871 84H524.039L518.423 78.24V65.76L524.039 60H533.063L536.087 62.304H536.279L536.567 60H540.023V84H536.567V81.312H536.375L532.871 84ZM522.263 76.656L525.719 80.16H531.767L536.183 76.896V67.104L531.623 63.84H525.719L522.263 67.344V76.656ZM563.524 84H552.82L547.204 79.296V75.888H551.044V77.568L554.212 80.208H562.276L565.444 78.096V75.264L562.756 73.44H554.068V70.08H562.756L565.444 68.496V65.904L562.276 63.792H554.692L551.524 66.432V68.112H547.684V64.704L553.3 60H563.524L569.284 63.984V70.08L566.164 71.664V71.856L569.284 73.44V80.016L563.524 84ZM578.865 84H574.065V80.16H576.657L578.385 77.232V60H597.585V84H593.745V63.696H582.225V78.24L578.865 84ZM608.798 84H605.246V60H609.086V76.704H609.47L622.142 60H626.366V84H622.526V66.144H622.142L608.798 84ZM655.148 84H651.308V73.584H651.116L648.092 76.32H638.204L633.548 71.136V60H637.388V69.648L639.932 72.48H646.556L651.308 68.352V60H655.148V84ZM666.649 84H662.809V60H666.649V69.84H680.089V60H683.929V84H680.089V73.584H666.649V84ZM700.518 84H691.59V60H695.43V68.16H700.566L705.99 71.856V80.016L700.518 84ZM712.71 84H708.966V60H712.71V84ZM695.43 72V80.16H699.558L702.246 78.192V73.728L699.558 72H695.43ZM722.195 84H719.171V80.976L728.819 71.856L720.083 63.024V60H723.107L731.075 68.832H731.267L739.235 60H742.259V63.024L733.523 71.856L742.691 80.976V84H739.667L731.267 74.88H731.075L722.195 84ZM781.774 84H777.934V60H782.974L788.35 71.52H788.638L794.014 60H799.054V84H795.214L795.454 66.048H795.262L790.654 75.84H786.334L781.726 66.048H781.534L781.774 84ZM810.267 84H806.715V60H810.555V76.704H810.939L823.611 60H827.835V84H823.995V66.144H823.611L810.267 84ZM839.336 84H835.496V60H839.336V69.84H852.776V60H856.616V84H852.776V73.584H839.336V84ZM867.83 84H864.278V60H868.118V76.704H868.502L881.174 60H885.398V84H881.558V66.144H881.174L867.83 84ZM911.299 72H895.939V68.352H911.299V72ZM925.392 84H921.84V60H925.68V76.704H926.064L938.736 60H942.96V84H939.12V66.144H938.736L925.392 84ZM956.861 84H953.021V60H973.181V63.744H956.861V84ZM983.339 94.08H979.403V60H983.339V62.688H983.531L986.651 60H995.387L1001 65.76V78.24L995.387 84H986.267L983.531 81.648H983.339V94.08ZM983.243 76.896L987.659 80.16H993.707L997.163 76.656V67.344L993.707 63.84H987.803L983.243 67.104V76.896ZM4.68 132H0.84V108H5.88L11.256 119.52H11.544L16.92 108H21.96V132H18.12L18.36 114.048H18.168L13.56 123.84H9.24L4.632 114.048H4.44L4.68 132ZM45.6053 132H34.7573L29.1413 126.24V113.76L34.7573 108H45.6053L51.2213 113.76V126.24L45.6053 132ZM32.9813 124.656L36.4373 128.16H43.9253L47.3813 124.656V115.344L43.9253 111.84H36.4373L32.9813 115.344V124.656ZM60.3225 132H57.4425V129.12L62.5305 119.712L57.5865 110.88V108H60.4665L65.9385 118.128H67.0425V108H70.8825V118.128H71.9865L77.4585 108H80.3385V110.88L75.3465 119.712L80.4825 129.12V132H77.6025L71.9865 121.392H70.8825V132H67.0425V121.392H65.9385L60.3225 132ZM91.0238 132H87.1838V108H91.0238V117.84H104.464V108H108.304V132H104.464V121.584H91.0238V132ZM131.949 132H121.101L115.485 126.24V113.76L121.101 108H131.949L137.565 113.76V126.24L131.949 132ZM119.325 124.656L122.781 128.16H130.269L133.725 124.656V115.344L130.269 111.84H122.781L119.325 115.344V124.656ZM177.368 132H173.528V108H194.648V132H190.808V111.744H177.368V132ZM206.245 142.08H202.309V108H206.245V110.688H206.437L209.557 108H218.293L223.909 113.76V126.24L218.293 132H209.173L206.437 129.648H206.245V142.08ZM206.149 124.896L210.565 128.16H216.613L220.069 124.656V115.344L216.613 111.84H210.709L206.149 115.104V124.896ZM247.074 132H236.226L230.61 126.24V113.76L236.226 108H247.074L252.69 113.76V126.24L247.074 132ZM234.45 124.656L237.906 128.16H245.394L248.85 124.656V115.344L245.394 111.84H237.906L234.45 115.344V124.656ZM275.711 132H259.871V108H276.287L280.991 111.312V117.6L278.207 119.568V119.712L281.471 121.68V128.016L275.711 132ZM263.711 111.744V117.792H274.847L277.151 116.064V113.376L274.847 111.744H263.711ZM263.711 121.68V128.16H274.655L277.631 126.096V123.792L274.655 121.68H263.711ZM305.357 132H293.789L288.173 126.24V113.76L293.789 108H304.877L310.493 113.76V121.776H292.013V124.656L295.469 128.16H303.677L307.133 124.656L310.397 126.816L305.357 132ZM292.013 115.344V118.128H306.653V115.344L303.197 111.84H295.469L292.013 115.344ZM321.37 142.08H317.434V108H321.37V110.688H321.562L324.682 108H333.418L339.034 113.76V126.24L333.418 132H324.298L321.562 129.648H321.37V142.08ZM321.274 124.896L325.69 128.16H331.738L335.194 124.656V115.344L331.738 111.84H325.834L321.274 115.104V124.896ZM349.767 132H346.215V108H350.055V124.704H350.439L363.111 108H367.335V132H363.495V114.144H363.111L349.767 132ZM387.524 132H383.588L383.684 111.696H373.556V108H397.556V111.696H387.428L387.524 132ZM420.434 132H403.778V108H407.618V116.16H420.386L425.858 119.664V128.112L420.434 132ZM407.618 120V128.16H419.234L422.018 126.144V121.728L419.234 120H407.618ZM478.044 132H466.476L460.86 126.24V113.76L466.476 108H478.044L483.18 113.28L479.82 115.344L476.412 111.84H468.156L464.748 115.344V124.8L468.156 128.16H476.364L479.82 124.656L483.084 126.816L478.044 132ZM505.961 132H490.121V108H506.537L511.241 111.312V117.6L508.457 119.568V119.712L511.721 121.68V128.016L505.961 132ZM493.961 111.744V117.792H505.097L507.401 116.064V113.376L505.097 111.744H493.961ZM493.961 121.68V128.16H504.905L507.881 126.096V123.792L504.905 121.68H493.961ZM534.887 132H524.039L518.423 126.24V113.76L524.039 108H534.887L540.503 113.76V126.24L534.887 132ZM522.263 124.656L525.719 128.16H533.207L536.663 124.656V115.344L533.207 111.84H525.719L522.263 115.344V124.656ZM551.236 132H547.684V108H551.524V124.704H551.908L564.58 108H568.804V132H564.964V114.144H564.58L551.236 132ZM609.086 132H605.246V108H609.086V117.84H622.526V108H626.366V132H622.526V121.584H609.086V132ZM647.996 132H639.164L633.548 126.24V113.76L639.164 108H648.188L651.212 110.304H651.404L651.692 108H655.148V132H651.692V129.312H651.5L647.996 132ZM637.388 124.656L640.844 128.16H646.892L651.308 124.896V115.104L646.748 111.84H640.844L637.388 115.344V124.656ZM678.649 132H662.809V108H679.225L683.929 111.312V117.6L681.145 119.568V119.712L684.409 121.68V128.016L678.649 132ZM666.649 111.744V117.792H677.785L680.089 116.064V113.376L677.785 111.744H666.649ZM666.649 121.68V128.16H677.593L680.569 126.096V123.792L677.593 121.68H666.649ZM700.518 132H691.59V108H695.43V116.16H700.566L705.99 119.856V128.016L700.518 132ZM712.71 132H708.966V108H712.71V132ZM695.43 120V128.16H699.558L702.246 126.192V121.728L699.558 120H695.43ZM733.571 119.76V119.952L743.411 129.216V132H740.627L730.019 121.872H724.211V131.904H720.371V108H724.211V118.032H730.019L740.003 108H742.787V110.784L733.571 119.76ZM752.705 132H749.153V108H752.993V124.704H753.377L766.049 108H770.273V132H766.433V114.144H766.049L752.705 132ZM10.056 176.88L2.52 168.672V166.368L10.056 158.16H12.6V160.704L6.264 167.328V167.712L12.6 174.336V176.88H10.056ZM18.216 176.88L10.68 168.672V166.368L18.216 158.16H20.76V160.704L14.424 167.328V167.712L20.76 174.336V176.88H18.216ZM33.4613 180H29.6213V156H50.7413V180H46.9013V159.744H33.4613V180ZM74.3865 180H63.5385L57.9225 174.24V161.76L63.5385 156H74.3865L80.0025 161.76V174.24L74.3865 180ZM61.7625 172.656L65.2185 176.16H72.7065L76.1625 172.656V163.344L72.7065 159.84H65.2185L61.7625 163.344V172.656ZM88.6238 185.76H84.7838V176.16H88.1438L89.5838 172.032V156H107.344V176.16H110.704V185.76H106.864V180H88.6238V185.76ZM93.4238 172.56L92.2238 176.16H103.504V159.744H93.4238V172.56ZM117.789 180H114.765V176.976L124.413 167.856L115.677 159.024V156H118.701L126.669 164.832H126.861L134.829 156H137.853V159.024L129.117 167.856L138.285 176.976V180H135.261L126.861 170.88H126.669L117.789 180ZM160.73 180H149.882L144.266 174.24V161.76L149.882 156H160.73L166.346 161.76V174.24L160.73 180ZM148.106 172.656L151.562 176.16H159.05L162.506 172.656V163.344L159.05 159.84H151.562L148.106 163.344V172.656ZM174.968 185.76H171.128V176.16H174.488L175.928 172.032V156H193.688V176.16H197.048V185.76H193.208V180H174.968V185.76ZM179.768 172.56L178.568 176.16H189.848V159.744H179.768V172.56ZM206.149 180H202.309V156H206.149V165.84H219.589V156H223.429V180H219.589V169.584H206.149V180ZM247.074 180H236.226L230.61 174.24V161.76L236.226 156H247.074L252.69 161.76V174.24L247.074 180ZM234.45 172.656L237.906 176.16H245.394L248.85 172.656V163.344L245.394 159.84H237.906L234.45 163.344V172.656ZM276.575 180H265.007L259.391 174.24V161.76L265.007 156H276.575L281.711 161.28L278.351 163.344L274.943 159.84H266.687L263.279 163.344V172.8L266.687 176.16H274.895L278.351 172.656L281.615 174.816L276.575 180ZM301.181 180H297.245L297.341 159.696H287.213V156H311.213V159.696H301.085L301.181 180ZM320.986 180H317.434V156H321.274V172.704H321.658L334.33 156H338.554V180H334.714V162.144H334.33L320.986 180ZM357.495 166.368V168.672L349.959 176.88H347.415V174.336L353.751 167.712V167.328L347.415 160.704V158.16H349.959L357.495 166.368ZM365.655 166.368V168.672L358.119 176.88H355.575V174.336L361.911 167.712V167.328L355.575 160.704V158.16H358.119L365.655 166.368ZM419.618 180H403.778V156H420.194L424.898 159.312V165.6L422.114 167.568V167.712L425.378 169.68V176.016L419.618 180ZM407.618 159.744V165.792H418.754L421.058 164.064V161.376L418.754 159.744H407.618ZM407.618 169.68V176.16H418.562L421.538 174.096V171.792L418.562 169.68H407.618ZM474.54 167.76V167.952L484.38 177.216V180H481.596L470.988 169.872H465.18V179.904H461.34V156H465.18V166.032H470.988L480.972 156H483.756V158.784L474.54 167.76ZM504.089 180H495.257L489.641 174.24V161.76L495.257 156H504.281L507.305 158.304H507.497L507.785 156H511.241V180H507.785V177.312H507.593L504.089 180ZM493.481 172.656L496.937 176.16H502.985L507.401 172.896V163.104L502.841 159.84H496.937L493.481 163.344V172.656ZM522.839 190.08H518.903V156H522.839V158.688H523.031L526.151 156H534.887L540.503 161.76V174.24L534.887 180H525.767L523.031 177.648H522.839V190.08ZM522.743 172.896L527.159 176.16H533.207L536.663 172.656V163.344L533.207 159.84H527.303L522.743 163.104V172.896ZM560.212 180H556.276L556.372 159.696H546.244V156H570.244V159.696H560.116L560.212 180ZM580.017 180H576.465V156H580.305V172.704H580.689L593.361 156H597.585V180H593.745V162.144H593.361L580.017 180ZM609.086 180H605.246V156H609.086V165.84H622.526V156H626.366V180H622.526V169.584H609.086V180ZM642.956 180H634.028V156H637.868V164.16H643.004L648.428 167.856V176.016L642.956 180ZM655.148 180H651.404V156H655.148V180ZM637.868 168V176.16H641.996L644.684 174.192V169.728L641.996 168H637.868ZM671.737 180H666.169V174.336H671.737V180ZM4.68 276H0.84V252H21.96V276H18.12V255.744H4.68V276ZM33.5573 286.08H29.6213V252H33.5573V254.688H33.7493L36.8693 252H45.6053L51.2213 257.76V270.24L45.6053 276H36.4853L33.7493 273.648H33.5573V286.08ZM33.4613 268.896L37.8773 272.16H43.9253L47.3813 268.656V259.344L43.9253 255.84H38.0213L33.4613 259.104V268.896ZM74.3865 276H63.5385L57.9225 270.24V257.76L63.5385 252H74.3865L80.0025 257.76V270.24L74.3865 276ZM61.7625 268.656L65.2185 272.16H72.7065L76.1625 268.656V259.344L72.7065 255.84H65.2185L61.7625 259.344V268.656ZM103.888 276H92.3198L86.7038 270.24V257.76L92.3198 252H103.408L109.024 257.76V265.776H90.5438V268.656L93.9998 272.16H102.208L105.664 268.656L108.928 270.816L103.888 276ZM90.5438 259.344V262.128H105.184V259.344L101.728 255.84H93.9998L90.5438 259.344ZM129.165 263.76V263.952L139.005 273.216V276H136.221L125.613 265.872H119.805V275.904H115.965V252H119.805V262.032H125.613L135.597 252H138.381V254.784L129.165 263.76ZM157.274 276H153.338L153.434 255.696H143.306V252H167.306V255.696H157.178L157.274 276ZM206.149 276H202.309V252H223.429V276H219.589V255.744H206.149V276ZM247.074 276H236.226L230.61 270.24V257.76L236.226 252H247.074L252.69 257.76V270.24L247.074 276ZM234.45 268.656L237.906 272.16H245.394L248.85 268.656V259.344L245.394 255.84H237.906L234.45 259.344V268.656ZM275.711 276H265.007L259.391 271.296V267.888H263.231V269.568L266.399 272.208H274.463L277.631 270.096V267.264L274.943 265.44H266.255V262.08H274.943L277.631 260.496V257.904L274.463 255.792H266.879L263.711 258.432V260.112H259.871V256.704L265.487 252H275.711L281.471 255.984V262.08L278.351 263.664V263.856L281.471 265.44V272.016L275.711 276ZM304.493 276H288.653V252H305.069L309.773 255.312V261.6L306.989 263.568V263.712L310.253 265.68V272.016L304.493 276ZM292.493 255.744V261.792H303.629L305.933 260.064V257.376L303.629 255.744H292.493ZM292.493 265.68V272.16H303.437L306.413 270.096V267.792L303.437 265.68H292.493ZM333.418 276H322.57L316.954 270.24V257.76L322.57 252H333.418L339.034 257.76V270.24L333.418 276ZM320.794 268.656L324.25 272.16H331.738L335.194 268.656V259.344L331.738 255.84H324.25L320.794 259.344V268.656ZM348.615 276H343.815V272.16H346.407L348.135 269.232V252H367.335V276H363.495V255.696H351.975V270.24L348.615 276ZM377.636 276H374.612V273.216L383.252 267.408V267.216H380.132L374.516 263.856V255.888L379.94 252H396.116V276H392.276V267.216H388.964L377.636 276ZM378.356 261.792L381.14 263.52H392.276V255.84H381.14L378.356 257.856V261.792ZM420.482 276H408.914L403.298 270.24V257.76L408.914 252H420.002L425.618 257.76V265.776H407.138V268.656L410.594 272.16H418.802L422.258 268.656L425.522 270.816L420.482 276ZM407.138 259.344V262.128H421.778V259.344L418.322 255.84H410.594L407.138 259.344ZM445.087 276H441.151L441.247 255.696H431.119V252H455.119V255.696H444.991L445.087 276ZM493.961 276H490.121V252H511.241V276H507.401V255.744H493.961V276ZM522.839 286.08H518.903V252H522.839V254.688H523.031L526.151 252H534.887L540.503 257.76V270.24L534.887 276H525.767L523.031 273.648H522.839V286.08ZM522.743 268.896L527.159 272.16H533.207L536.663 268.656V259.344L533.207 255.84H527.303L522.743 259.104V268.896ZM563.668 276H552.82L547.204 270.24V257.76L552.82 252H563.668L569.284 257.76V270.24L563.668 276ZM551.044 268.656L554.5 272.16H561.988L565.444 268.656V259.344L561.988 255.84H554.5L551.044 259.344V268.656ZM580.017 276H576.465V252H580.305V268.704H580.689L593.361 252H597.585V276H593.745V258.144H593.361L580.017 276ZM591.345 248.64H582.753L579.249 245.088V240.768H582.993V243.792L584.241 245.04H589.857L591.105 243.744V240.768H594.849V245.088L591.345 248.64ZM617.774 276H613.838L613.934 255.696H603.806V252H627.806V255.696H617.678L617.774 276ZM637.58 276H634.028V252H637.868V268.704H638.252L650.924 252H655.148V276H651.308V258.144H650.924L637.58 276ZM695.43 276H691.59V252H695.43V261.84H708.87V252H712.71V276H708.87V265.584H695.43V276ZM734.339 276H725.507L719.891 270.24V257.76L725.507 252H734.531L737.555 254.304H737.747L738.035 252H741.491V276H738.035V273.312H737.843L734.339 276ZM723.731 268.656L727.187 272.16H733.235L737.651 268.896V259.104L733.091 255.84H727.187L723.731 259.344V268.656ZM770.273 276H766.433V265.584H766.241L763.217 268.32H753.329L748.673 263.136V252H752.513V261.648L755.057 264.48H761.681L766.433 260.352V252H770.273V276ZM791.902 276H783.07L777.454 270.24V257.76L783.07 252H792.094L795.118 254.304H795.31L795.598 252H799.054V276H795.598V273.312H795.406L791.902 276ZM781.294 268.656L784.75 272.16H790.798L795.214 268.896V259.104L790.654 255.84H784.75L781.294 259.344V268.656ZM809.115 276H804.315V272.16H806.907L808.635 269.232V252H827.835V276H823.995V255.696H812.475V270.24L809.115 276ZM852.152 276H835.496V252H839.336V260.16H852.104L857.576 263.664V272.112L852.152 276ZM839.336 264V272.16H850.952L853.736 270.144V265.728L850.952 264H839.336ZM868.118 276H864.278V252H868.118V261.84H881.558V252H885.398V276H881.558V265.584H868.118V276ZM902.131 286.08H898.867V283.056L902.083 276.48L891.859 255.024V252H894.835L903.955 271.728H904.243L912.883 252H915.859V255.024L902.131 286.08ZM924.864 276H921.12V252H924.864V262.128H927.696V257.952L932.976 252H938.352L943.68 257.952V270.24L938.304 276H933.024L927.696 270.24V265.872H924.864V276ZM931.536 259.44V268.752L934.704 272.16H936.624L939.84 268.752V259.44L936.672 255.84H934.656L931.536 259.44ZM17.544 324H5.976L0.36 318.24V305.76L5.976 300H17.544L22.68 305.28L19.32 307.344L15.912 303.84H7.656L4.248 307.344V316.8L7.656 320.16H15.864L19.32 316.656L22.584 318.816L17.544 324ZM42.1493 324H38.2133L38.3093 303.696H28.1813V300H52.1813V303.696H42.0533L42.1493 324ZM72.3705 324H63.5385L57.9225 318.24V305.76L63.5385 300H72.5625L75.5865 302.304H75.7785L76.0665 300H79.5225V324H76.0665V321.312H75.8745L72.3705 324ZM61.7625 316.656L65.2185 320.16H71.2665L75.6825 316.896V307.104L71.1225 303.84H65.2185L61.7625 307.344V316.656ZM88.6238 329.76H84.7838V320.16H88.1438L89.5838 316.032V300H107.344V320.16H110.704V329.76H106.864V324H88.6238V329.76ZM93.4238 316.56L92.2238 320.16H103.504V303.744H93.4238V316.56ZM119.517 324H115.965V300H119.805V316.704H120.189L132.861 300H137.085V324H133.245V306.144H132.861L119.517 324ZM147.77 324H144.026V300H147.77V310.128H150.602V305.952L155.882 300H161.258L166.586 305.952V318.24L161.21 324H155.93L150.602 318.24V313.872H147.77V324ZM154.442 307.44V316.752L157.61 320.16H159.53L162.746 316.752V307.44L159.578 303.84H157.562L154.442 307.44ZM214.837 324H210.901L210.997 303.696H200.869V300H224.869V303.696H214.741L214.837 324ZM247.794 324H236.226L230.61 318.24V305.76L236.226 300H247.314L252.93 305.76V313.776H234.45V316.656L237.906 320.16H246.114L249.57 316.656L252.834 318.816L247.794 324ZM234.45 307.344V310.128H249.09V307.344L245.634 303.84H237.906L234.45 307.344ZM263.807 334.08H259.871V300H263.807V302.688H263.999L267.119 300H275.855L281.471 305.76V318.24L275.855 324H266.735L263.999 321.648H263.807V334.08ZM263.711 316.896L268.127 320.16H274.175L277.631 316.656V307.344L274.175 303.84H268.271L263.711 307.104V316.896ZM302.621 324H293.789L288.173 318.24V305.76L293.789 300H302.813L305.837 302.304H306.029L306.317 300H309.773V324H306.317V321.312H306.125L302.621 324ZM292.013 316.656L295.469 320.16H301.517L305.933 316.896V307.104L301.373 303.84H295.469L292.013 307.344V316.656ZM321.274 324H317.434V300H338.554V324H334.714V303.744H321.274V324ZM349.767 324H346.215V300H350.055V316.704H350.439L363.111 300H367.335V324H363.495V306.144H363.111L349.767 324ZM378.548 324H374.996V300H378.836V316.704H379.22L391.892 300H396.116V324H392.276V306.144H391.892L378.548 324ZM436.111 324H432.559V300H436.399V316.704H436.783L449.455 300H453.679V324H449.839V306.144H449.455L436.111 324ZM493.961 324H490.121V300H511.241V324H507.401V303.744H493.961V324ZM534.887 324H524.039L518.423 318.24V305.76L524.039 300H534.887L540.503 305.76V318.24L534.887 324ZM522.263 316.656L525.719 320.16H533.207L536.663 316.656V307.344L533.207 303.84H525.719L522.263 307.344V316.656ZM550.084 324H545.284V320.16H547.876L549.604 317.232V300H568.804V324H564.964V303.696H553.444V318.24L550.084 324ZM585.537 334.08H582.273V331.056L585.489 324.48L575.265 303.024V300H578.241L587.361 319.728H587.649L596.289 300H599.265V303.024L585.537 334.08ZM626.366 324H622.526V313.584H622.334L619.31 316.32H609.422L604.766 311.136V300H608.606V309.648L611.15 312.48H617.774L622.526 308.352V300H626.366V324ZM637.58 324H634.028V300H637.868V316.704H638.252L650.924 300H655.148V324H651.308V306.144H650.924L637.58 324ZM675.337 324H671.401L671.497 303.696H661.369V300H685.369V303.696H675.241L675.337 324ZM708.246 324H691.59V300H695.43V308.16H708.198L713.67 311.664V320.112L708.246 324ZM695.43 312V320.16H707.046L709.83 318.144V313.728L707.046 312H695.43ZM752.993 324H749.153V300H770.273V324H766.433V303.744H752.993V324ZM793.918 324H783.07L777.454 318.24V305.76L783.07 300H793.918L799.534 305.76V318.24L793.918 324ZM781.294 316.656L784.75 320.16H792.238L795.694 316.656V307.344L792.238 303.84H784.75L781.294 307.344V316.656ZM822.555 324H811.851L806.235 319.296V315.888H810.075V317.568L813.243 320.208H821.307L824.475 318.096V315.264L821.787 313.44H813.099V310.08H821.787L824.475 308.496V305.904L821.307 303.792H813.723L810.555 306.432V308.112H806.715V304.704L812.331 300H822.555L828.315 303.984V310.08L825.195 311.664V311.856L828.315 313.44V320.016L822.555 324ZM839.048 324H835.496V300H839.336V316.704H839.72L852.392 300H856.616V324H852.776V306.144H852.392L839.048 324ZM876.806 324H872.87L872.966 303.696H862.838V300H886.838V303.696H876.71L876.806 324ZM896.611 324H893.059V300H896.899V316.704H897.283L909.955 300H914.179V324H910.339V306.144H909.955L896.611 324ZM937.68 324H921.84V300H938.256L942.96 303.312V309.6L940.176 311.568V311.712L943.44 313.68V320.016L937.68 324ZM925.68 303.744V309.792H936.816L939.12 308.064V305.376L936.816 303.744H925.68ZM925.68 313.68V320.16H936.624L939.6 318.096V315.792L936.624 313.68H925.68ZM954.461 324H950.621V300H954.461V309.84H967.901V300H971.741V324H967.901V313.584H954.461V324ZM988.331 324H979.403V300H983.243V308.16H988.379L993.803 311.856V320.016L988.331 324ZM1000.52 324H996.779V300H1000.52V324ZM983.243 312V320.16H987.371L990.059 318.192V313.728L987.371 312H983.243ZM1024.89 324H1013.32L1007.7 318.24V305.76L1013.32 300H1024.41L1030.02 305.76V313.776H1011.54V316.656L1015 320.16H1023.21L1026.66 316.656L1029.93 318.816L1024.89 324ZM1011.54 307.344V310.128H1026.18V307.344L1022.73 303.84H1015L1011.54 307.344ZM5.256 348H16.824L22.44 353.76V366.24L16.824 372H5.256L0.216 366.816L3.48 364.656L6.936 368.16H15.144L18.552 364.8V361.584H7.656V357.936H18.552V355.344L15.144 351.84H6.888L3.48 355.344L0.12 353.28L5.256 348ZM33.4613 372H29.6213V348H34.6613L40.0373 359.52H40.3253L45.7013 348H50.7413V372H46.9013L47.1413 354.048H46.9493L42.3413 363.84H38.0213L33.4133 354.048H33.2213L33.4613 372ZM74.3865 372H63.5385L57.9225 366.24V353.76L63.5385 348H74.3865L80.0025 353.76V366.24L74.3865 372ZM61.7625 364.656L65.2185 368.16H72.7065L76.1625 364.656V355.344L72.7065 351.84H65.2185L61.7625 355.344V364.656ZM110.944 377.76H107.104V372H87.1838V348H91.0238V368.256H103.84V348H107.68V368.448H110.944V377.76ZM119.517 372H115.965V348H119.805V364.704H120.189L132.861 348H137.085V372H133.245V354.144H132.861L119.517 372ZM148.298 372H144.746V348H148.586V364.704H148.97L161.642 348H165.866V372H162.026V354.144H161.642L148.298 372ZM182.456 372H176.888V366.336H182.456V372Z" fill="white"/>
</svg>
