<svg width="428" height="60" viewBox="0 0 428 60" fill="none" xmlns="http://www.w3.org/2000/svg">
<path d="M2.8 23H0.4V8H13.6V23H11.2V10.34H2.8V23ZM20.8483 29.3H18.3883V8H20.8483V9.68H20.9683L22.9183 8H28.3783L31.8883 11.6V19.4L28.3783 23H22.6783L20.9683 21.53H20.8483V29.3ZM20.7883 18.56L23.5483 20.6H27.3283L29.4883 18.41V12.59L27.3283 10.4H23.6383L20.7883 12.44V18.56ZM46.3666 23H39.5866L36.0766 19.4V11.6L39.5866 8H46.3666L49.8766 11.6V19.4L46.3666 23ZM38.4766 18.41L40.6366 20.6H45.3166L47.4766 18.41V12.59L45.3166 10.4H40.6366L38.4766 12.59V18.41ZM64.8048 23H57.5748L54.0648 19.4V11.6L57.5748 8H64.5048L68.0148 11.6V16.61H56.4648V18.41L58.6248 20.6H63.7548L65.9148 18.41L67.9548 19.76L64.8048 23ZM56.4648 12.59V14.33H65.6148V12.59L63.4548 10.4H58.6248L56.4648 12.59ZM80.6031 15.35V15.47L86.7531 21.26V23H85.0131L78.3831 16.67H74.7531V22.94H72.3531V8H74.7531V14.27H78.3831L84.6231 8H86.3631V9.74L80.6031 15.35ZM98.1714 23H95.7114L95.7714 10.31H89.4414V8H104.441V10.31H98.1114L98.1714 23ZM136.758 23H129.528L126.018 19.4V11.6L129.528 8H136.758L139.968 11.3L137.868 12.59L135.738 10.4H130.578L128.448 12.59V18.5L130.578 20.6H135.708L137.868 18.41L139.908 19.76L136.758 23ZM149.976 29.3H147.936V27.41L149.946 23.3L143.556 9.89V8H145.416L151.116 20.33H151.296L156.696 8H158.556V9.89L149.976 29.3ZM164.755 29.3H162.295V8H164.755V9.68H164.875L166.825 8H172.285L175.795 11.6V19.4L172.285 23H166.585L164.875 21.53H164.755V29.3ZM164.695 18.56L167.455 20.6H171.235L173.395 18.41V12.59L171.235 10.4H167.545L164.695 12.44V18.56ZM190.273 23H183.493L179.983 19.4V11.6L183.493 8H190.273L193.783 11.6V19.4L190.273 23ZM182.383 18.41L184.543 20.6H189.223L191.383 18.41V12.59L189.223 10.4H184.543L182.383 12.59V18.41ZM208.171 23H198.271V8H208.531L211.471 10.07V14L209.731 15.23V15.32L211.771 16.55V20.51L208.171 23ZM200.671 10.34V14.12H207.631L209.071 13.04V11.36L207.631 10.34H200.671ZM200.671 16.55V20.6H207.511L209.371 19.31V17.87L207.511 16.55H200.671ZM231.109 26.6H228.709V23H216.259V8H218.659V20.66H226.669V8H229.069V20.78H231.109V26.6ZM244.688 23H237.458L233.948 19.4V11.6L237.458 8H244.388L247.898 11.6V16.61H236.348V18.41L238.508 20.6H243.638L245.798 18.41L247.838 19.76L244.688 23ZM236.348 12.59V14.33H245.498V12.59L243.338 10.4H238.508L236.348 12.59ZM262.136 23H252.236V8H262.496L265.436 10.07V14L263.696 15.23V15.32L265.736 16.55V20.51L262.136 23ZM254.636 10.34V14.12H261.596L263.036 13.04V11.36L261.596 10.34H254.636ZM254.636 16.55V20.6H261.476L263.336 19.31V17.87L261.476 16.55H254.636ZM280.214 23H273.434L269.924 19.4V11.6L273.434 8H280.214L283.724 11.6V19.4L280.214 23ZM272.324 18.41L274.484 20.6H279.164L281.324 18.41V12.59L279.164 10.4H274.484L272.324 12.59V18.41ZM290.433 23H288.213V8H290.613V18.44H290.853L298.773 8H301.413V23H299.013V11.84H298.773L290.433 23ZM297.513 5.9H292.143L289.953 3.68V0.979999H292.293V2.87L293.073 3.65H296.583L297.363 2.84V0.979999H299.703V3.68L297.513 5.9ZM334.089 23H327.399L323.889 20.06V17.93H326.289V18.98L328.269 20.63H333.309L335.289 19.31V17.54L333.609 16.4H328.179V14.3H333.609L335.289 13.31V11.69L333.309 10.37H328.569L326.589 12.02V13.07H324.189V10.94L327.699 8H334.089L337.689 10.49V14.3L335.739 15.29V15.41L337.689 16.4V20.51L334.089 23ZM343.677 23H340.677V20.6H342.297L343.377 18.77V8H355.377V23H352.977V10.31H345.777V19.4L343.677 23ZM368.896 23H363.376L359.866 19.4V11.6L363.376 8H369.016L370.906 9.44H371.026L371.206 8H373.366V23H371.206V21.32H371.086L368.896 23ZM362.266 18.41L364.426 20.6H368.206L370.966 18.56V12.44L368.116 10.4H364.426L362.266 12.59V18.41ZM385.984 23H383.524L383.584 10.31H377.254V8H392.254V10.31H385.924L385.984 23ZM401.722 23H396.142V8H398.542V13.1H401.752L405.142 15.41V20.51L401.722 23ZM409.342 23H407.002V8H409.342V23ZM398.542 15.5V20.6H401.122L402.802 19.37V16.58L401.122 15.5H398.542ZM8.65 45.35V45.47L14.8 51.26V53H13.06L6.43 46.67H2.8V52.94H0.4V38H2.8V44.27H6.43L12.67 38H14.41V39.74L8.65 45.35ZM24.0583 59.3H22.0183V57.41L24.0283 53.3L17.6383 39.89V38H19.4983L25.1983 50.33H25.3783L30.7783 38H32.6383V39.89L24.0583 59.3ZM38.8366 59.3H36.3766V38H38.8366V39.68H38.9566L40.9066 38H46.3666L49.8766 41.6V49.4L46.3666 53H40.6666L38.9566 51.53H38.8366V59.3ZM38.7766 48.56L41.5366 50.6H45.3166L47.4766 48.41V42.59L45.3166 40.4H41.6266L38.7766 42.44V48.56ZM63.0948 53H57.5748L54.0648 49.4V41.6L57.5748 38H63.2148L65.1048 39.44H65.2248L65.4048 38H67.5648V53H65.4048V51.32H65.2848L63.0948 53ZM56.4648 48.41L58.6248 50.6H62.4048L65.1648 48.56V42.44L62.3148 40.4H58.6248L56.4648 42.59V48.41ZM80.1831 53H77.7231L77.7831 40.31H71.4531V38H86.4531V40.31H80.1231L80.1831 53ZM100.331 53H93.5514L90.0414 49.4V41.6L93.5514 38H100.331L103.841 41.6V49.4L100.331 53ZM92.4414 48.41L94.6014 50.6H99.2814L101.441 48.41V42.59L99.2814 40.4H94.6014L92.4414 42.59V48.41ZM110.79 59.3H108.33V38H110.79V39.68H110.91L112.86 38H118.32L121.83 41.6V49.4L118.32 53H112.62L110.91 51.53H110.79V59.3ZM110.73 48.56L113.49 50.6H117.27L119.43 48.41V42.59L117.27 40.4H113.58L110.73 42.44V48.56ZM145.956 53H144.066V51.26L149.466 47.63V47.51H147.516L144.006 45.41V40.43L147.396 38H157.506V53H155.106V47.51H153.036L145.956 53ZM146.406 44.12L148.146 45.2H155.106V40.4H148.146L146.406 41.66V44.12ZM164.755 59.3H162.295V38H164.755V39.68H164.875L166.825 38H172.285L175.795 41.6V49.4L172.285 53H166.585L164.875 51.53H164.755V59.3ZM164.695 48.56L167.455 50.6H171.235L173.395 48.41V42.59L171.235 40.4H167.545L164.695 42.44V48.56ZM190.273 53H183.493L179.983 49.4V41.6L183.493 38H190.273L193.783 41.6V49.4L190.273 53ZM182.383 48.41L184.543 50.6H189.223L191.383 48.41V42.59L189.223 40.4H184.543L182.383 42.59V48.41ZM208.711 53H201.481L197.971 49.4V41.6L201.481 38H208.711L211.921 41.3L209.821 42.59L207.691 40.4H202.531L200.401 42.59V48.5L202.531 50.6H207.661L209.821 48.41L211.861 49.76L208.711 53ZM217.759 53H214.759V50.6H216.379L217.459 48.77V38H229.459V53H227.059V40.31H219.859V49.4L217.759 53ZM242.978 53H237.458L233.948 49.4V41.6L237.458 38H243.098L244.988 39.44H245.108L245.288 38H247.448V53H245.288V51.32H245.168L242.978 53ZM236.348 48.41L238.508 50.6H242.288L245.048 48.56V42.44L242.198 40.4H238.508L236.348 42.59V48.41ZM262.136 53H252.236V38H262.496L265.436 40.07V44L263.696 45.23V45.32L265.736 46.55V50.51L262.136 53ZM254.636 40.34V44.12H261.596L263.036 43.04V41.36L261.596 40.34H254.636ZM254.636 46.55V50.6H261.476L263.336 49.31V47.87L261.476 46.55H254.636ZM298.653 53H291.423L287.913 49.4V41.6L291.423 38H298.653L301.863 41.3L299.763 42.59L297.633 40.4H292.473L290.343 42.59V48.5L292.473 50.6H297.603L299.763 48.41L301.803 49.76L298.653 53ZM311.871 59.3H309.831V57.41L311.841 53.3L305.451 39.89V38H307.311L313.011 50.33H313.191L318.591 38H320.451V39.89L311.871 59.3ZM334.179 53H327.399L323.889 49.4V38L326.769 33.68H333.999L335.319 32.27H337.059V34.07L334.929 36.08H328.059L326.289 38.78V41H326.439L328.449 39.2H334.179L337.689 42.8V49.4L334.179 53ZM326.289 48.41L328.449 50.6H333.129L335.289 48.41V43.79L333.129 41.6H328.899L326.289 43.79V48.41ZM352.167 53H345.387L341.877 49.4V38L344.757 33.68H351.987L353.307 32.27H355.047V34.07L352.917 36.08H346.047L344.277 38.78V41H344.427L346.437 39.2H352.167L355.677 42.8V49.4L352.167 53ZM344.277 48.41L346.437 50.6H351.117L353.277 48.41V43.79L351.117 41.6H346.887L344.277 43.79V48.41ZM370.156 53H363.376L359.866 49.4V41.6L363.376 38H370.156L373.666 41.6V49.4L370.156 53ZM362.266 48.41L364.426 50.6H369.106L371.266 48.41V42.59L369.106 40.4H364.426L362.266 42.59V48.41ZM385.984 53H383.524L383.584 40.31H377.254V38H392.254V40.31H385.924L385.984 53ZM398.362 53H396.142V38H398.542V48.44H398.782L406.702 38H409.342V53H406.942V41.84H406.702L398.362 53ZM416.53 53H414.13V38H416.53V44.15H424.93V38H427.33V53H424.93V46.49H416.53V53Z" fill="white"/>
</svg>
