<svg width="1004" height="46" viewBox="0 0 1004 46" fill="none" xmlns="http://www.w3.org/2000/svg">
<path d="M5.45 35H0.2V9.75H23.8V35H18.55V14.85H5.45V35ZM53.0305 35H40.9305L34.9805 28.85V15.85L40.9305 9.75H53.0305L58.9805 15.85V28.85L53.0305 35ZM40.1805 26.7L43.1805 29.8H50.7805L53.7805 26.7V18.05L50.7805 14.95H43.1805L40.1805 18.05V26.7ZM88.6609 35H75.7109L69.7609 28.85V15.85L75.7109 9.75H88.6609L94.0109 15.25L89.4109 18.05L86.4109 14.95H77.9609L75.0109 18.05V26.75L77.9609 29.8H86.4109L89.4109 26.7L93.8609 29.65L88.6609 35ZM119.641 35H114.241L114.441 14.9H103.641V9.75H130.241V14.9H119.491L119.641 35ZM155.572 35H145.872L139.922 28.85V15.85L145.872 9.75H155.772L158.672 11.95H158.822L159.072 9.75H163.422V35H158.972L158.922 32.5H158.772L155.572 35ZM145.072 26.7L148.122 29.85H154.472L158.372 26.8V17.9L154.272 14.9H148.122L145.072 18.05V26.7ZM192.652 35H175.402V10H193.152L198.352 13.7V20.15L195.152 22.05V22.2L198.602 24.15V30.85L192.652 35ZM180.552 15V20H191.102L193.202 18.45V16.5L191.102 15H180.552ZM180.552 24.55V29.95H191.002L193.452 28.2V26.3L191.002 24.55H180.552ZM228.633 35H210.083V9.75H215.333V17.7H228.633L234.383 21.6V30.75L228.633 35ZM215.333 22.65V29.9H226.833L229.183 28.2V24.2L226.833 22.65H215.333ZM295.544 22.05V22.35L305.094 31.3V35H301.144L291.144 25.1H285.294V34.9H280.044V9.75H285.294V19.85H291.144L300.594 9.75H304.444V13.4L295.544 22.05ZM325.574 45.5H321.324V41.5L324.524 35.1L314.424 13.8V9.75H318.474L326.974 28.6H327.324L335.524 9.75H339.574V13.65L325.574 45.5ZM368.505 35H355.555L349.605 28.85V15.85L355.555 9.75H368.505L373.855 15.25L369.255 18.05L366.255 14.95H357.805L354.855 18.05V26.75L357.805 29.8H366.255L369.255 26.7L373.705 29.65L368.505 35ZM402.835 35H390.735L384.785 28.85V15.85L390.735 9.75H402.835L408.785 15.85V28.85L402.835 35ZM389.985 26.7L392.985 29.8H400.585L403.585 26.7V18.05L400.585 14.95H392.985L389.985 18.05V26.7ZM443.566 35H438.416V25.1H438.216L435.616 27.65H424.866L419.466 21.75V9.75H424.716V19.75L427.166 22.45H434.116L438.316 18.75V9.75H443.566V35ZM470.446 22.05V22.35L479.996 31.3V35H476.046L466.046 25.1H460.196V34.9H454.946V9.75H460.196V19.85H466.046L475.496 9.75H479.346V13.4L470.446 22.05ZM495.127 35H490.227V9.75H495.427V26.15H495.827L507.827 9.75H513.227V35H508.027V17.7H507.627L495.127 35ZM565.138 35H559.888V9.75H565.138V19.55H578.238V9.75H583.488V35H578.238V24.7H565.138V35ZM610.318 35H600.618L594.668 28.85V15.85L600.618 9.75H610.518L613.418 11.95H613.568L613.818 9.75H618.168V35H613.718L613.668 32.5H613.518L610.318 35ZM599.818 26.7L602.868 29.85H609.218L613.118 26.8V17.9L609.018 14.9H602.868L599.818 18.05V26.7ZM683.329 35H670.379L664.429 28.85V15.85L670.379 9.75H683.329L688.679 15.25L684.079 18.05L681.079 14.95H672.629L669.679 18.05V26.75L672.629 29.8H681.079L684.079 26.7L688.529 29.65L683.329 35ZM717.359 35H700.109V10H717.859L723.059 13.7V20.15L719.859 22.05V22.2L723.309 24.15V30.85L717.359 35ZM705.259 15V20H715.809L717.909 18.45V16.5L715.809 15H705.259ZM705.259 24.55V29.95H715.709L718.159 28.2V26.3L715.709 24.55H705.259ZM752.64 35H740.54L734.59 28.85V15.85L740.54 9.75H752.64L758.59 15.85V28.85L752.64 35ZM739.79 26.7L742.79 29.8H750.39L753.39 26.7V18.05L750.39 14.95H742.79L739.79 18.05V26.7ZM788.62 35H775.52L769.57 28.85V15.85L775.52 9.75H787.87L793.82 15.85V24.55H774.62V26.95L777.57 29.85H786.37L789.32 26.85L793.72 29.75L788.62 35ZM774.62 17.8V20.1H788.77V17.8L785.87 14.9H777.57L774.62 17.8ZM779.62 5.75H774.42V0.649998H779.62V5.75ZM789.12 5.75H783.92V0.649998H789.12V5.75ZM844.831 35H839.731V9.75H846.181L851.331 20.9H851.731L856.881 9.75H863.331V35H858.231L858.331 18.1H858.031L853.731 27.3H849.331L845.031 18.1H844.731L844.831 35ZM893.562 35H880.462L874.512 28.85V15.85L880.462 9.75H892.812L898.762 15.85V24.55H879.562V26.95L882.512 29.85H891.312L894.262 26.85L898.662 29.75L893.562 35ZM879.562 17.8V20.1H893.712V17.8L890.812 14.9H882.512L879.562 17.8ZM928.192 35H915.242L909.292 28.85V15.85L915.242 9.75H928.192L933.542 15.25L928.942 18.05L925.942 14.95H917.492L914.542 18.05V26.75L917.492 29.8H925.942L928.942 26.7L933.392 29.65L928.192 35ZM959.173 35H953.773L953.973 14.9H943.173V9.75H969.773V14.9H959.023L959.173 35ZM997.503 35H985.403L979.453 28.85V15.85L985.403 9.75H997.503L1003.45 15.85V28.85L997.503 35ZM984.653 26.7L987.653 29.8H995.253L998.253 26.7V18.05L995.253 14.95H987.653L984.653 18.05V26.7Z" fill="white"/>
</svg>
