<svg width="1046" height="378" viewBox="0 0 1046 378" fill="none" xmlns="http://www.w3.org/2000/svg">
<path d="M16.824 36H5.976L0.359995 30.24V17.76L5.976 12H16.824L22.44 17.76V30.24L16.824 36ZM4.2 28.656L7.656 32.16H15.144L18.6 28.656V19.344L15.144 15.84H7.656L4.2 19.344V28.656Z" fill="white"/>
<path d="M45.6052 36H34.7572L29.1412 30.24V12L33.7492 5.088H45.3172L47.4292 2.832H50.2132V5.712L46.8052 8.92801H35.8132L32.9812 13.248V16.8H33.2212L36.4372 13.92H45.6052L51.2212 19.68V30.24L45.6052 36ZM32.9812 28.656L36.4372 32.16H43.9252L47.3812 28.656V21.264L43.9252 17.76H37.1572L32.9812 21.264V28.656Z" fill="white"/>
<path d="M62.3385 46.08H58.4025V12H62.3385V14.688H62.5305L65.6505 12H74.3865L80.0025 17.76V30.24L74.3865 36H65.2665L62.5305 33.648H62.3385V46.08ZM62.2425 28.896L66.6585 32.16H72.7065L76.1625 28.656V19.344L72.7065 15.84H66.8025L62.2425 19.104V28.896Z" fill="white"/>
<path d="M101.152 36H92.3197L86.7037 30.24V17.76L92.3197 12H101.344L104.368 14.304H104.56L104.848 12H108.304V36H104.848V33.312H104.656L101.152 36ZM90.5437 28.656L93.9997 32.16H100.048L104.464 28.896V19.104L99.9037 15.84H93.9997L90.5437 19.344V28.656Z" fill="white"/>
<path d="M131.805 36H121.101L115.485 31.296V27.888H119.325V29.568L122.493 32.208H130.557L133.725 30.096V27.264L131.037 25.44H122.349V22.08H131.037L133.725 20.496V17.904L130.557 15.792H122.973L119.805 18.432V20.112H115.965V16.704L121.581 12H131.805L137.565 15.984V22.08L134.445 23.664V23.856L137.565 25.44V32.016L131.805 36Z" fill="white"/>
<path d="M160.73 36H149.882L144.266 30.24V17.76L149.882 12H160.73L166.346 17.76V30.24L160.73 36ZM148.106 28.656L151.562 32.16H159.05L162.506 28.656V19.344L159.05 15.84H151.562L148.106 19.344V28.656Z" fill="white"/>
<path d="M189.367 36H173.527V12H189.943L194.647 15.312V21.6L191.863 23.568V23.712L195.128 25.68V32.016L189.367 36ZM177.367 15.744V21.792H188.503L190.807 20.064V17.376L188.503 15.744H177.367ZM177.367 25.68V32.16H188.311L191.287 30.096V27.792L188.311 25.68H177.367Z" fill="white"/>
<path d="M216.277 36H207.445L201.829 30.24V17.76L207.445 12H216.469L219.493 14.304H219.685L219.973 12H223.429V36H219.973V33.312H219.781L216.277 36ZM205.669 28.656L209.125 32.16H215.173L219.589 28.896V19.104L215.029 15.84H209.125L205.669 19.344V28.656Z" fill="white"/>
<path d="M243.618 36H239.682L239.778 15.696H229.65V12H253.65V15.696H243.522L243.618 36Z" fill="white"/>
<path d="M276.575 36H265.007L259.391 30.24V17.76L265.007 12H276.095L281.711 17.76V25.776H263.231V28.656L266.687 32.16H274.895L278.351 28.656L281.615 30.816L276.575 36ZM263.231 19.344V22.128H277.871V19.344L274.415 15.84H266.687L263.231 19.344Z" fill="white"/>
<path d="M291.052 36H286.253V32.16H288.844L290.573 29.232V12H309.772V36H305.932V15.696H294.413V30.24L291.052 36Z" fill="white"/>
<path d="M334.09 36H317.434V12H321.274V20.16H334.042L339.514 23.664V32.112L334.09 36ZM321.274 24V32.16H332.89L335.674 30.144V25.728L332.89 24H321.274Z" fill="white"/>
<path d="M350.055 36H346.215V12H350.055V21.84H363.495V12H367.335V36H363.495V25.584H350.055V36Z" fill="white"/>
<path d="M383.924 36H374.996V12H378.836V20.16H383.972L389.396 23.856V32.016L383.924 36ZM396.116 36H392.372V12H396.116V36ZM378.836 24V32.16H382.964L385.652 30.192V25.728L382.964 24H378.836Z" fill="white"/>
<path d="M407.329 36H403.777V12H407.617V28.704H408.001L420.673 12H424.897V36H421.057V18.144H420.673L407.329 36ZM418.658 8.64H410.065L406.561 5.088V0.768005H410.305V3.79201L411.553 5.04H417.169L418.418 3.744V0.768005H422.161V5.088L418.658 8.64Z" fill="white"/>
<path d="M465.18 36H461.34V12H482.46V36H478.62V15.744H465.18V36Z" fill="white"/>
<path d="M492.521 36H487.721V32.16H490.313L492.041 29.232V12H511.241V36H507.401V15.696H495.881V30.24L492.521 36Z" fill="white"/>
<path d="M532.87 36H524.039L518.422 30.24V17.76L524.039 12H533.062L536.086 14.304H536.279L536.566 12H540.023V36H536.566V33.312H536.375L532.87 36ZM522.263 28.656L525.719 32.16H531.766L536.182 28.896V19.104L531.622 15.84H525.719L522.263 19.344V28.656Z" fill="white"/>
<path d="M560.884 23.76V23.952L570.724 33.216V36H567.94L557.332 25.872H551.524V35.904H547.684V12H551.524V22.032H557.332L567.316 12H570.1V14.784L560.884 23.76Z" fill="white"/>
<path d="M590.433 36H581.601L575.985 30.24V17.76L581.601 12H590.625L593.649 14.304H593.841L594.129 12H597.585V36H594.129V33.312H593.937L590.433 36ZM579.825 28.656L583.281 32.16H589.329L593.745 28.896V19.104L589.185 15.84H583.281L579.825 19.344V28.656Z" fill="white"/>
<path d="M617.774 36H613.838L613.934 15.696H603.806V12H627.806V15.696H617.678L617.774 36Z" fill="white"/>
<path d="M664.249 41.76H660.409V32.16H663.769L665.209 28.032V12H682.969V32.16H686.329V41.76H682.489V36H664.249V41.76ZM669.049 28.56L667.849 32.16H679.129V15.744H669.049V28.56Z" fill="white"/>
<path d="M693.99 36H689.19V32.16H691.782L693.51 29.232V12H712.71V36H708.87V15.696H697.35V30.24L693.99 36Z" fill="white"/>
<path d="M723.011 36H719.987V33.216L728.627 27.408V27.216H725.507L719.891 23.856V15.888L725.315 12H741.491V36H737.651V27.216H734.339L723.011 36ZM723.731 21.792L726.515 23.52H737.651V15.84H726.515L723.731 17.856V21.792Z" fill="white"/>
<path d="M781.774 36H777.934V12H799.054V36H795.214V15.744H781.774V36Z" fill="white"/>
<path d="M820.683 36H811.851L806.235 30.24V17.76L811.851 12H820.875L823.899 14.304H824.091L824.379 12H827.835V36H824.379V33.312H824.187L820.683 36ZM810.075 28.656L813.531 32.16H819.579L823.995 28.896V19.104L819.435 15.84H813.531L810.075 19.344V28.656Z" fill="white"/>
<path d="M851.336 36H840.632L835.016 31.296V27.888H838.856V29.568L842.024 32.208H850.088L853.256 30.096V27.264L850.568 25.44H841.88V22.08H850.568L853.256 20.496V17.904L850.088 15.792H842.504L839.336 18.432V20.112H835.496V16.704L841.112 12H851.336L857.096 15.984V22.08L853.976 23.664V23.856L857.096 25.44V32.016L851.336 36Z" fill="white"/>
<path d="M866.677 36H861.878V32.16H864.469L866.198 29.232V12H885.398V36H881.557V15.696H870.037V30.24L866.677 36Z" fill="white"/>
<path d="M909.043 36H898.195L892.579 30.24V17.76L898.195 12H909.043L914.659 17.76V30.24L909.043 36ZM896.419 28.656L899.875 32.16H907.363L910.819 28.656V19.344L907.363 15.84H899.875L896.419 19.344V28.656Z" fill="white"/>
<path d="M937.68 36H921.84V12H938.256L942.96 15.312V21.6L940.176 23.568V23.712L943.44 25.68V32.016L937.68 36ZM925.68 15.744V21.792H936.816L939.12 20.064V17.376L936.816 15.744H925.68ZM925.68 25.68V32.16H936.624L939.6 30.096V27.792L936.624 25.68H925.68Z" fill="white"/>
<path d="M959.549 36H953.981V30.336H959.549V36Z" fill="white"/>
<path d="M4.68 84H0.839995V60H4.68V69.84H18.12V60H21.96V84H18.12V73.584H4.68V84Z" fill="white"/>
<path d="M43.5892 84H34.7572L29.1412 78.24V65.76L34.7572 60H43.7812L46.8052 62.304H46.9972L47.2852 60H50.7412V84H47.2852V81.312H47.0932L43.5892 84ZM32.9812 76.656L36.4372 80.16H42.4852L46.9012 76.896V67.104L42.3412 63.84H36.4372L32.9812 67.344V76.656Z" fill="white"/>
<path d="M91.0237 84H87.1837V60H91.0237V69.84H104.464V60H108.304V84H104.464V73.584H91.0237V84Z" fill="white"/>
<path d="M132.669 84H121.101L115.485 78.24V65.76L121.101 60H132.189L137.805 65.76V73.776H119.325V76.656L122.781 80.16H130.989L134.445 76.656L137.709 78.816L132.669 84ZM119.325 67.344V70.128H133.965V67.344L130.509 63.84H122.781L119.325 67.344Z" fill="white"/>
<path d="M148.586 84H144.746V60H149.786L155.162 71.52H155.45L160.826 60H165.866V84H162.026L162.266 66.048H162.074L157.466 75.84H153.146L148.538 66.048H148.346L148.586 84Z" fill="white"/>
<path d="M179.383 84H176.887V78.336H182.455V84L179.911 90.864H177.223L177.943 85.392L179.383 84Z" fill="white"/>
<path d="M247.794 84H236.226L230.61 78.24V65.76L236.226 60H247.794L252.93 65.28L249.57 67.344L246.162 63.84H237.906L234.498 67.344V76.8L237.906 80.16H246.114L249.57 76.656L252.834 78.816L247.794 84Z" fill="white"/>
<path d="M292.492 84H288.652V60H309.772V84H305.932V63.744H292.492V84Z" fill="white"/>
<path d="M333.418 84H322.57L316.954 78.24V65.76L322.57 60H333.418L339.034 65.76V78.24L333.418 84ZM320.794 76.656L324.25 80.16H331.738L335.194 76.656V67.344L331.738 63.84H324.25L320.794 67.344V76.656Z" fill="white"/>
<path d="M350.055 84H346.215V60H351.255L356.631 71.52H356.919L362.295 60H367.335V84H363.495L363.735 66.048H363.543L358.935 75.84H354.615L350.007 66.048H349.815L350.055 84Z" fill="white"/>
<path d="M390.98 84H380.132L374.516 78.24V65.76L380.132 60H390.98L396.596 65.76V78.24L390.98 84ZM378.356 76.656L381.812 80.16H389.3L392.756 76.656V67.344L389.3 63.84H381.812L378.356 67.344V76.656Z" fill="white"/>
<path d="M423.841 84H403.777V60H407.569V80.304H412.609V60H415.969V80.304H421.009V60H424.801V80.448H427.681V89.28H423.841V84Z" fill="white"/>
<path d="M449.215 84H432.559V60H436.399V68.16H449.167L454.639 71.664V80.112L449.215 84ZM436.399 72V80.16H448.015L450.799 78.144V73.728L448.015 72H436.399Z" fill="white"/>
<path d="M464.364 84H460.62V60H464.364V70.128H467.196V65.952L472.476 60H477.852L483.18 65.952V78.24L477.804 84H472.524L467.196 78.24V73.872H464.364V84ZM471.036 67.44V76.752L474.204 80.16H476.124L479.34 76.752V67.44L476.172 63.84H474.156L471.036 67.44Z" fill="white"/>
<path d="M522.839 94.08H518.902V60H522.839V62.688H523.031L526.151 60H534.886L540.503 65.76V78.24L534.886 84H525.766L523.031 81.648H522.839V94.08ZM522.742 76.896L527.159 80.16H533.206L536.662 76.656V67.344L533.206 63.84H527.302L522.742 67.104V76.896Z" fill="white"/>
<path d="M561.652 84H552.82L547.204 78.24V65.76L552.82 60H561.844L564.868 62.304H565.06L565.348 60H568.804V84H565.348V81.312H565.156L561.652 84ZM551.044 76.656L554.5 80.16H560.548L564.964 76.896V67.104L560.404 63.84H554.5L551.044 67.344V76.656Z" fill="white"/>
<path d="M592.305 84H581.601L575.985 79.296V75.888H579.825V77.568L582.993 80.208H591.057L594.225 78.096V75.264L591.537 73.44H582.849V70.08H591.537L594.225 68.496V65.904L591.057 63.792H583.473L580.305 66.432V68.112H576.465V64.704L582.081 60H592.305L598.065 63.984V70.08L594.945 71.664V71.856L598.065 73.44V80.016L592.305 84Z" fill="white"/>
<path d="M607.646 84H602.846V80.16H605.438L607.166 77.232V60H626.366V84H622.526V63.696H611.006V78.24L607.646 84Z" fill="white"/>
<path d="M637.579 84H634.027V60H637.867V76.704H638.252L650.924 60H655.148V84H651.307V66.144H650.924L637.579 84Z" fill="white"/>
<path d="M683.929 84H680.089V73.584H679.897L676.873 76.32H666.985L662.329 71.136V60H666.169V69.648L668.713 72.48H675.337L680.089 68.352V60H683.929V84Z" fill="white"/>
<path d="M695.43 84H691.59V60H695.43V69.84H708.87V60H712.71V84H708.87V73.584H695.43V84Z" fill="white"/>
<path d="M729.299 84H720.371V60H724.211V68.16H729.347L734.771 71.856V80.016L729.299 84ZM741.491 84H737.747V60H741.491V84ZM724.211 72V80.16H728.339L731.027 78.192V73.728L728.339 72H724.211Z" fill="white"/>
<path d="M750.977 84H747.953V80.976L757.601 71.856L748.865 63.024V60H751.888L759.857 68.832H760.049L768.016 60H771.04V63.024L762.305 71.856L771.472 80.976V84H768.448L760.049 74.88H759.857L750.977 84Z" fill="white"/>
<path d="M810.555 84H806.715V60H811.755L817.131 71.52H817.419L822.795 60H827.835V84H823.995L824.235 66.048H824.043L819.435 75.84H815.115L810.507 66.048H810.315L810.555 84Z" fill="white"/>
<path d="M839.048 84H835.496V60H839.336V76.704H839.72L852.392 60H856.616V84H852.776V66.144H852.392L839.048 84Z" fill="white"/>
<path d="M868.117 84H864.277V60H868.117V69.84H881.557V60H885.398V84H881.557V73.584H868.117V84Z" fill="white"/>
<path d="M896.611 84H893.059V60H896.899V76.704H897.283L909.955 60H914.179V84H910.339V66.144H909.955L896.611 84Z" fill="white"/>
<path d="M940.08 72H924.72V68.352H940.08V72Z" fill="white"/>
<path d="M954.173 84H950.621V60H954.461V76.704H954.845L967.517 60H971.741V84H967.901V66.144H967.517L954.173 84Z" fill="white"/>
<path d="M985.643 84H981.802V60H1001.96V63.744H985.643V84Z" fill="white"/>
<path d="M1012.12 94.08H1008.18V60H1012.12V62.688H1012.31L1015.43 60H1024.17L1029.78 65.76V78.24L1024.17 84H1015.05L1012.31 81.648H1012.12V94.08ZM1012.02 76.896L1016.44 80.16H1022.49L1025.94 76.656V67.344L1022.49 63.84H1016.58L1012.02 67.104V76.896Z" fill="white"/>
<path d="M1042.82 84H1040.32V78.336H1045.89V84L1043.35 90.864H1040.66L1041.38 85.392L1042.82 84Z" fill="white"/>
<path d="M16.68 132H0.839995V108H17.256L21.96 111.312V117.6L19.176 119.568V119.712L22.44 121.68V128.016L16.68 132ZM4.68 111.744V117.792H15.816L18.12 116.064V113.376L15.816 111.744H4.68ZM4.68 121.68V128.16H15.624L18.6 126.096V123.792L15.624 121.68H4.68Z" fill="white"/>
<path d="M45.6052 132H34.7572L29.1412 126.24V113.76L34.7572 108H45.6052L51.2212 113.76V126.24L45.6052 132ZM32.9812 124.656L36.4372 128.16H43.9252L47.3812 124.656V115.344L43.9252 111.84H36.4372L32.9812 115.344V124.656Z" fill="white"/>
<path d="M74.2425 132H63.5385L57.9225 127.296V123.888H61.7625V125.568L64.9305 128.208H72.9945L76.1625 126.096V123.264L73.4745 121.44H64.7865V118.08H73.4745L76.1625 116.496V113.904L72.9945 111.792H65.4105L62.2425 114.432V116.112H58.4025V112.704L64.0185 108H74.2425L80.0025 111.984V118.08L76.8825 119.664V119.856L80.0025 121.44V128.016L74.2425 132Z" fill="white"/>
<path d="M91.0237 132H87.1837V108H92.2237L97.5997 119.52H97.8877L103.264 108H108.304V132H104.464L104.704 114.048H104.512L99.9037 123.84H95.5837L90.9757 114.048H90.7837L91.0237 132Z" fill="white"/>
<path d="M131.949 132H121.101L115.485 126.24V113.76L121.101 108H131.949L137.565 113.76V126.24L131.949 132ZM119.325 124.656L122.781 128.16H130.269L133.725 124.656V115.344L130.269 111.84H122.781L119.325 115.344V124.656Z" fill="white"/>
<path d="M146.666 132H143.786V129.12L148.874 119.712L143.93 110.88V108H146.81L152.282 118.128H153.386V108H157.226V118.128H158.33L163.802 108H166.682V110.88L161.69 119.712L166.826 129.12V132H163.946L158.33 121.392H157.226V132H153.386V121.392H152.282L146.666 132Z" fill="white"/>
<path d="M177.367 132H173.527V108H177.367V117.84H190.807V108H194.647V132H190.807V121.584H177.367V132Z" fill="white"/>
<path d="M218.293 132H207.445L201.829 126.24V113.76L207.445 108H218.293L223.909 113.76V126.24L218.293 132ZM205.669 124.656L209.125 128.16H216.613L220.069 124.656V115.344L216.613 111.84H209.125L205.669 115.344V124.656Z" fill="white"/>
<path d="M263.711 132H259.871V108H280.991V132H277.151V111.744H263.711V132Z" fill="white"/>
<path d="M292.589 142.08H288.652V108H292.589V110.688H292.78L295.9 108H304.637L310.253 113.76V126.24L304.637 132H295.517L292.78 129.648H292.589V142.08ZM292.492 124.896L296.909 128.16H302.956L306.413 124.656V115.344L302.956 111.84H297.052L292.492 115.104V124.896Z" fill="white"/>
<path d="M333.418 132H322.57L316.954 126.24V113.76L322.57 108H333.418L339.034 113.76V126.24L333.418 132ZM320.794 124.656L324.25 128.16H331.738L335.194 124.656V115.344L331.738 111.84H324.25L320.794 115.344V124.656Z" fill="white"/>
<path d="M362.055 132H346.215V108H362.631L367.335 111.312V117.6L364.551 119.568V119.712L367.815 121.68V128.016L362.055 132ZM350.055 111.744V117.792H361.191L363.495 116.064V113.376L361.191 111.744H350.055ZM350.055 121.68V128.16H360.999L363.975 126.096V123.792L360.999 121.68H350.055Z" fill="white"/>
<path d="M391.7 132H380.132L374.516 126.24V113.76L380.132 108H391.22L396.836 113.76V121.776H378.356V124.656L381.812 128.16H390.02L393.476 124.656L396.74 126.816L391.7 132ZM378.356 115.344V118.128H392.996V115.344L389.54 111.84H381.812L378.356 115.344Z" fill="white"/>
<path d="M407.714 142.08H403.777V108H407.714V110.688H407.905L411.025 108H419.762L425.378 113.76V126.24L419.762 132H410.642L407.905 129.648H407.714V142.08ZM407.617 124.896L412.034 128.16H418.081L421.538 124.656V115.344L418.081 111.84H412.177L407.617 115.104V124.896Z" fill="white"/>
<path d="M436.111 132H432.559V108H436.399V124.704H436.783L449.455 108H453.679V132H449.839V114.144H449.455L436.111 132Z" fill="white"/>
<path d="M473.868 132H469.932L470.028 111.696H459.9V108H483.9V111.696H473.772L473.868 132Z" fill="white"/>
<path d="M506.777 132H490.121V108H493.961V116.16H506.729L512.201 119.664V128.112L506.777 132ZM493.961 120V128.16H505.577L508.361 126.144V121.728L505.577 120H493.961Z" fill="white"/>
<path d="M564.388 132H552.82L547.204 126.24V113.76L552.82 108H564.388L569.524 113.28L566.164 115.344L562.756 111.84H554.5L551.092 115.344V124.8L554.5 128.16H562.708L566.164 124.656L569.428 126.816L564.388 132Z" fill="white"/>
<path d="M592.305 132H576.465V108H592.881L597.585 111.312V117.6L594.801 119.568V119.712L598.065 121.68V128.016L592.305 132ZM580.305 111.744V117.792H591.441L593.745 116.064V113.376L591.441 111.744H580.305ZM580.305 121.68V128.16H591.249L594.225 126.096V123.792L591.249 121.68H580.305Z" fill="white"/>
<path d="M621.23 132H610.382L604.766 126.24V113.76L610.382 108H621.23L626.846 113.76V126.24L621.23 132ZM608.606 124.656L612.062 128.16H619.55L623.006 124.656V115.344L619.55 111.84H612.062L608.606 115.344V124.656Z" fill="white"/>
<path d="M637.579 132H634.027V108H637.867V124.704H638.252L650.924 108H655.148V132H651.307V114.144H650.924L637.579 132Z" fill="white"/>
<path d="M695.43 132H691.59V108H695.43V117.84H708.87V108H712.71V132H708.87V121.584H695.43V132Z" fill="white"/>
<path d="M734.339 132H725.507L719.891 126.24V113.76L725.507 108H734.531L737.555 110.304H737.747L738.035 108H741.491V132H738.035V129.312H737.843L734.339 132ZM723.731 124.656L727.187 128.16H733.235L737.651 124.896V115.104L733.091 111.84H727.187L723.731 115.344V124.656Z" fill="white"/>
<path d="M764.992 132H749.152V108H765.568L770.273 111.312V117.6L767.489 119.568V119.712L770.753 121.68V128.016L764.992 132ZM752.992 111.744V117.792H764.128L766.432 116.064V113.376L764.128 111.744H752.992ZM752.992 121.68V128.16H763.937L766.912 126.096V123.792L763.937 121.68H752.992Z" fill="white"/>
<path d="M786.862 132H777.934V108H781.774V116.16H786.91L792.334 119.856V128.016L786.862 132ZM799.054 132H795.31V108H799.054V132ZM781.774 120V128.16H785.902L788.59 126.192V121.728L785.902 120H781.774Z" fill="white"/>
<path d="M819.915 119.76V119.952L829.755 129.216V132H826.971L816.363 121.872H810.555V131.904H806.715V108H810.555V118.032H816.363L826.347 108H829.131V110.784L819.915 119.76Z" fill="white"/>
<path d="M839.048 132H835.496V108H839.336V124.704H839.72L852.392 108H856.616V132H852.776V114.144H852.392L839.048 132Z" fill="white"/>
<path d="M10.056 176.88L2.51999 168.672V166.368L10.056 158.16H12.6V160.704L6.264 167.328V167.712L12.6 174.336V176.88H10.056ZM18.216 176.88L10.68 168.672V166.368L18.216 158.16H20.76V160.704L14.424 167.328V167.712L20.76 174.336V176.88H18.216Z" fill="white"/>
<path d="M33.4612 180H29.6212V156H50.7412V180H46.9012V159.744H33.4612V180Z" fill="white"/>
<path d="M74.3865 180H63.5385L57.9225 174.24V161.76L63.5385 156H74.3865L80.0025 161.76V174.24L74.3865 180ZM61.7625 172.656L65.2185 176.16H72.7065L76.1625 172.656V163.344L72.7065 159.84H65.2185L61.7625 163.344V172.656Z" fill="white"/>
<path d="M88.6237 185.76H84.7837V176.16H88.1437L89.5837 172.032V156H107.344V176.16H110.704V185.76H106.864V180H88.6237V185.76ZM93.4237 172.56L92.2237 176.16H103.504V159.744H93.4237V172.56Z" fill="white"/>
<path d="M117.789 180H114.765V176.976L124.413 167.856L115.677 159.024V156H118.701L126.669 164.832H126.861L134.829 156H137.853V159.024L129.117 167.856L138.285 176.976V180H135.261L126.861 170.88H126.669L117.789 180Z" fill="white"/>
<path d="M160.73 180H149.882L144.266 174.24V161.76L149.882 156H160.73L166.346 161.76V174.24L160.73 180ZM148.106 172.656L151.562 176.16H159.05L162.506 172.656V163.344L159.05 159.84H151.562L148.106 163.344V172.656Z" fill="white"/>
<path d="M174.967 185.76H171.128V176.16H174.487L175.927 172.032V156H193.688V176.16H197.048V185.76H193.207V180H174.967V185.76ZM179.768 172.56L178.567 176.16H189.847V159.744H179.768V172.56Z" fill="white"/>
<path d="M206.149 180H202.309V156H206.149V165.84H219.589V156H223.429V180H219.589V169.584H206.149V180Z" fill="white"/>
<path d="M247.074 180H236.226L230.61 174.24V161.76L236.226 156H247.074L252.69 161.76V174.24L247.074 180ZM234.45 172.656L237.906 176.16H245.394L248.85 172.656V163.344L245.394 159.84H237.906L234.45 163.344V172.656Z" fill="white"/>
<path d="M276.575 180H265.007L259.391 174.24V161.76L265.007 156H276.575L281.711 161.28L278.351 163.344L274.943 159.84H266.687L263.279 163.344V172.8L266.687 176.16H274.895L278.351 172.656L281.615 174.816L276.575 180Z" fill="white"/>
<path d="M301.18 180H297.245L297.34 159.696H287.212V156H311.212V159.696H301.085L301.18 180Z" fill="white"/>
<path d="M320.986 180H317.434V156H321.274V172.704H321.658L334.33 156H338.554V180H334.714V162.144H334.33L320.986 180Z" fill="white"/>
<path d="M357.495 166.368V168.672L349.959 176.88H347.415V174.336L353.751 167.712V167.328L347.415 160.704V158.16H349.959L357.495 166.368ZM365.655 166.368V168.672L358.119 176.88H355.575V174.336L361.911 167.712V167.328L355.575 160.704V158.16H358.119L365.655 166.368Z" fill="white"/>
<path d="M419.617 180H403.777V156H420.193L424.897 159.312V165.6L422.113 167.568V167.712L425.378 169.68V176.016L419.617 180ZM407.617 159.744V165.792H418.754L421.057 164.064V161.376L418.754 159.744H407.617ZM407.617 169.68V176.16H418.561L421.538 174.096V171.792L418.561 169.68H407.617Z" fill="white"/>
<path d="M474.54 167.76V167.952L484.38 177.216V180H481.596L470.988 169.872H465.18V179.904H461.34V156H465.18V166.032H470.988L480.972 156H483.756V158.784L474.54 167.76Z" fill="white"/>
<path d="M504.089 180H495.257L489.641 174.24V161.76L495.257 156H504.281L507.305 158.304H507.497L507.785 156H511.241V180H507.785V177.312H507.593L504.089 180ZM493.481 172.656L496.937 176.16H502.985L507.401 172.896V163.104L502.841 159.84H496.937L493.481 163.344V172.656Z" fill="white"/>
<path d="M522.839 190.08H518.902V156H522.839V158.688H523.031L526.151 156H534.886L540.503 161.76V174.24L534.886 180H525.766L523.031 177.648H522.839V190.08ZM522.742 172.896L527.159 176.16H533.206L536.662 172.656V163.344L533.206 159.84H527.302L522.742 163.104V172.896Z" fill="white"/>
<path d="M560.212 180H556.276L556.372 159.696H546.244V156H570.244V159.696H560.116L560.212 180Z" fill="white"/>
<path d="M580.017 180H576.465V156H580.305V172.704H580.689L593.361 156H597.585V180H593.745V162.144H593.361L580.017 180Z" fill="white"/>
<path d="M609.086 180H605.246V156H609.086V165.84H622.526V156H626.366V180H622.526V169.584H609.086V180Z" fill="white"/>
<path d="M642.956 180H634.027V156H637.867V164.16H643.003L648.427 167.856V176.016L642.956 180ZM655.148 180H651.404V156H655.148V180ZM637.867 168V176.16H641.995L644.683 174.192V169.728L641.995 168H637.867Z" fill="white"/>
<path d="M671.737 180H666.169V174.336H671.737V180Z" fill="white"/>
<path d="M4.68 276H0.839995V252H21.96V276H18.12V255.744H4.68V276Z" fill="white"/>
<path d="M33.5572 286.08H29.6212V252H33.5572V254.688H33.7492L36.8692 252H45.6052L51.2212 257.76V270.24L45.6052 276H36.4852L33.7492 273.648H33.5572V286.08ZM33.4612 268.896L37.8772 272.16H43.9252L47.3812 268.656V259.344L43.9252 255.84H38.0212L33.4612 259.104V268.896Z" fill="white"/>
<path d="M74.3865 276H63.5385L57.9225 270.24V257.76L63.5385 252H74.3865L80.0025 257.76V270.24L74.3865 276ZM61.7625 268.656L65.2185 272.16H72.7065L76.1625 268.656V259.344L72.7065 255.84H65.2185L61.7625 259.344V268.656Z" fill="white"/>
<path d="M103.888 276H92.3197L86.7037 270.24V257.76L92.3197 252H103.408L109.024 257.76V265.776H90.5437V268.656L93.9997 272.16H102.208L105.664 268.656L108.928 270.816L103.888 276ZM90.5437 259.344V262.128H105.184V259.344L101.728 255.84H93.9997L90.5437 259.344Z" fill="white"/>
<path d="M129.165 263.76V263.952L139.005 273.216V276H136.221L125.613 265.872H119.805V275.904H115.965V252H119.805V262.032H125.613L135.597 252H138.381V254.784L129.165 263.76Z" fill="white"/>
<path d="M157.274 276H153.338L153.434 255.696H143.306V252H167.306V255.696H157.178L157.274 276Z" fill="white"/>
<path d="M206.149 276H202.309V252H223.429V276H219.589V255.744H206.149V276Z" fill="white"/>
<path d="M247.074 276H236.226L230.61 270.24V257.76L236.226 252H247.074L252.69 257.76V270.24L247.074 276ZM234.45 268.656L237.906 272.16H245.394L248.85 268.656V259.344L245.394 255.84H237.906L234.45 259.344V268.656Z" fill="white"/>
<path d="M275.711 276H265.007L259.391 271.296V267.888H263.231V269.568L266.399 272.208H274.463L277.631 270.096V267.264L274.943 265.44H266.255V262.08H274.943L277.631 260.496V257.904L274.463 255.792H266.879L263.711 258.432V260.112H259.871V256.704L265.487 252H275.711L281.471 255.984V262.08L278.351 263.664V263.856L281.471 265.44V272.016L275.711 276Z" fill="white"/>
<path d="M304.492 276H288.652V252H305.068L309.772 255.312V261.6L306.988 263.568V263.712L310.253 265.68V272.016L304.492 276ZM292.492 255.744V261.792H303.629L305.932 260.064V257.376L303.629 255.744H292.492ZM292.492 265.68V272.16H303.436L306.413 270.096V267.792L303.436 265.68H292.492Z" fill="white"/>
<path d="M333.418 276H322.57L316.954 270.24V257.76L322.57 252H333.418L339.034 257.76V270.24L333.418 276ZM320.794 268.656L324.25 272.16H331.738L335.194 268.656V259.344L331.738 255.84H324.25L320.794 259.344V268.656Z" fill="white"/>
<path d="M348.615 276H343.815V272.16H346.407L348.135 269.232V252H367.335V276H363.495V255.696H351.975V270.24L348.615 276Z" fill="white"/>
<path d="M377.636 276H374.612V273.216L383.252 267.408V267.216H380.132L374.516 263.856V255.888L379.94 252H396.116V276H392.276V267.216H388.964L377.636 276ZM378.356 261.792L381.14 263.52H392.276V255.84H381.14L378.356 257.856V261.792Z" fill="white"/>
<path d="M420.482 276H408.913L403.297 270.24V257.76L408.913 252H420.001L425.617 257.76V265.776H407.137V268.656L410.594 272.16H418.801L422.258 268.656L425.521 270.816L420.482 276ZM407.137 259.344V262.128H421.777V259.344L418.322 255.84H410.594L407.137 259.344Z" fill="white"/>
<path d="M445.087 276H441.151L441.247 255.696H431.119V252H455.119V255.696H444.991L445.087 276Z" fill="white"/>
<path d="M493.961 276H490.121V252H511.241V276H507.401V255.744H493.961V276Z" fill="white"/>
<path d="M522.839 286.08H518.902V252H522.839V254.688H523.031L526.151 252H534.886L540.503 257.76V270.24L534.886 276H525.766L523.031 273.648H522.839V286.08ZM522.742 268.896L527.159 272.16H533.206L536.662 268.656V259.344L533.206 255.84H527.302L522.742 259.104V268.896Z" fill="white"/>
<path d="M563.668 276H552.82L547.204 270.24V257.76L552.82 252H563.668L569.284 257.76V270.24L563.668 276ZM551.044 268.656L554.5 272.16H561.988L565.444 268.656V259.344L561.988 255.84H554.5L551.044 259.344V268.656Z" fill="white"/>
<path d="M580.017 276H576.465V252H580.305V268.704H580.689L593.361 252H597.585V276H593.745V258.144H593.361L580.017 276ZM591.345 248.64H582.753L579.249 245.088V240.768H582.993V243.792L584.241 245.04H589.857L591.105 243.744V240.768H594.849V245.088L591.345 248.64Z" fill="white"/>
<path d="M617.774 276H613.838L613.934 255.696H603.806V252H627.806V255.696H617.678L617.774 276Z" fill="white"/>
<path d="M637.579 276H634.027V252H637.867V268.704H638.252L650.924 252H655.148V276H651.307V258.144H650.924L637.579 276Z" fill="white"/>
<path d="M695.43 276H691.59V252H695.43V261.84H708.87V252H712.71V276H708.87V265.584H695.43V276Z" fill="white"/>
<path d="M734.339 276H725.507L719.891 270.24V257.76L725.507 252H734.531L737.555 254.304H737.747L738.035 252H741.491V276H738.035V273.312H737.843L734.339 276ZM723.731 268.656L727.187 272.16H733.235L737.651 268.896V259.104L733.091 255.84H727.187L723.731 259.344V268.656Z" fill="white"/>
<path d="M770.273 276H766.432V265.584H766.24L763.216 268.32H753.328L748.672 263.136V252H752.513V261.648L755.057 264.48H761.68L766.432 260.352V252H770.273V276Z" fill="white"/>
<path d="M791.902 276H783.07L777.454 270.24V257.76L783.07 252H792.094L795.118 254.304H795.31L795.598 252H799.054V276H795.598V273.312H795.406L791.902 276ZM781.294 268.656L784.75 272.16H790.798L795.214 268.896V259.104L790.654 255.84H784.75L781.294 259.344V268.656Z" fill="white"/>
<path d="M809.115 276H804.315V272.16H806.907L808.635 269.232V252H827.835V276H823.995V255.696H812.475V270.24L809.115 276Z" fill="white"/>
<path d="M852.152 276H835.496V252H839.336V260.16H852.104L857.576 263.664V272.112L852.152 276ZM839.336 264V272.16H850.952L853.736 270.144V265.728L850.952 264H839.336Z" fill="white"/>
<path d="M868.117 276H864.277V252H868.117V261.84H881.557V252H885.398V276H881.557V265.584H868.117V276Z" fill="white"/>
<path d="M902.131 286.08H898.867V283.056L902.083 276.48L891.859 255.024V252H894.835L903.955 271.728H904.243L912.883 252H915.859V255.024L902.131 286.08Z" fill="white"/>
<path d="M924.864 276H921.12V252H924.864V262.128H927.696V257.952L932.976 252H938.352L943.68 257.952V270.24L938.304 276H933.024L927.696 270.24V265.872H924.864V276ZM931.536 259.44V268.752L934.704 272.16H936.624L939.84 268.752V259.44L936.672 255.84H934.656L931.536 259.44Z" fill="white"/>
<path d="M17.544 324H5.976L0.359995 318.24V305.76L5.976 300H17.544L22.68 305.28L19.32 307.344L15.912 303.84H7.656L4.248 307.344V316.8L7.656 320.16H15.864L19.32 316.656L22.584 318.816L17.544 324Z" fill="white"/>
<path d="M42.1492 324H38.2132L38.3092 303.696H28.1812V300H52.1812V303.696H42.0532L42.1492 324Z" fill="white"/>
<path d="M72.3705 324H63.5385L57.9225 318.24V305.76L63.5385 300H72.5625L75.5865 302.304H75.7785L76.0665 300H79.5225V324H76.0665V321.312H75.8745L72.3705 324ZM61.7625 316.656L65.2185 320.16H71.2665L75.6825 316.896V307.104L71.1225 303.84H65.2185L61.7625 307.344V316.656Z" fill="white"/>
<path d="M88.6237 329.76H84.7837V320.16H88.1437L89.5837 316.032V300H107.344V320.16H110.704V329.76H106.864V324H88.6237V329.76ZM93.4237 316.56L92.2237 320.16H103.504V303.744H93.4237V316.56Z" fill="white"/>
<path d="M119.517 324H115.965V300H119.805V316.704H120.189L132.861 300H137.085V324H133.245V306.144H132.861L119.517 324Z" fill="white"/>
<path d="M147.77 324H144.026V300H147.77V310.128H150.602V305.952L155.882 300H161.258L166.586 305.952V318.24L161.21 324H155.93L150.602 318.24V313.872H147.77V324ZM154.442 307.44V316.752L157.61 320.16H159.53L162.746 316.752V307.44L159.578 303.84H157.562L154.442 307.44Z" fill="white"/>
<path d="M214.837 324H210.901L210.997 303.696H200.869V300H224.869V303.696H214.741L214.837 324Z" fill="white"/>
<path d="M247.794 324H236.226L230.61 318.24V305.76L236.226 300H247.314L252.93 305.76V313.776H234.45V316.656L237.906 320.16H246.114L249.57 316.656L252.834 318.816L247.794 324ZM234.45 307.344V310.128H249.09V307.344L245.634 303.84H237.906L234.45 307.344Z" fill="white"/>
<path d="M263.807 334.08H259.871V300H263.807V302.688H263.999L267.119 300H275.855L281.471 305.76V318.24L275.855 324H266.735L263.999 321.648H263.807V334.08ZM263.711 316.896L268.127 320.16H274.175L277.631 316.656V307.344L274.175 303.84H268.271L263.711 307.104V316.896Z" fill="white"/>
<path d="M302.62 324H293.788L288.172 318.24V305.76L293.788 300H302.812L305.836 302.304H306.029L306.316 300H309.772V324H306.316V321.312H306.125L302.62 324ZM292.012 316.656L295.469 320.16H301.517L305.932 316.896V307.104L301.372 303.84H295.469L292.012 307.344V316.656Z" fill="white"/>
<path d="M321.274 324H317.434V300H338.554V324H334.714V303.744H321.274V324Z" fill="white"/>
<path d="M349.767 324H346.215V300H350.055V316.704H350.439L363.111 300H367.335V324H363.495V306.144H363.111L349.767 324Z" fill="white"/>
<path d="M378.548 324H374.996V300H378.836V316.704H379.22L391.892 300H396.116V324H392.276V306.144H391.892L378.548 324Z" fill="white"/>
<path d="M436.111 324H432.559V300H436.399V316.704H436.783L449.455 300H453.679V324H449.839V306.144H449.455L436.111 324Z" fill="white"/>
<path d="M493.961 324H490.121V300H511.241V324H507.401V303.744H493.961V324Z" fill="white"/>
<path d="M534.886 324H524.039L518.422 318.24V305.76L524.039 300H534.886L540.503 305.76V318.24L534.886 324ZM522.263 316.656L525.719 320.16H533.206L536.662 316.656V307.344L533.206 303.84H525.719L522.263 307.344V316.656Z" fill="white"/>
<path d="M550.084 324H545.284V320.16H547.876L549.604 317.232V300H568.804V324H564.964V303.696H553.444V318.24L550.084 324Z" fill="white"/>
<path d="M585.537 334.08H582.273V331.056L585.489 324.48L575.265 303.024V300H578.241L587.361 319.728H587.649L596.289 300H599.265V303.024L585.537 334.08Z" fill="white"/>
<path d="M626.366 324H622.526V313.584H622.334L619.31 316.32H609.422L604.766 311.136V300H608.606V309.648L611.15 312.48H617.774L622.526 308.352V300H626.366V324Z" fill="white"/>
<path d="M637.579 324H634.027V300H637.867V316.704H638.252L650.924 300H655.148V324H651.307V306.144H650.924L637.579 324Z" fill="white"/>
<path d="M675.337 324H671.401L671.497 303.696H661.369V300H685.369V303.696H675.241L675.337 324Z" fill="white"/>
<path d="M708.246 324H691.59V300H695.43V308.16H708.198L713.67 311.664V320.112L708.246 324ZM695.43 312V320.16H707.046L709.83 318.144V313.728L707.046 312H695.43Z" fill="white"/>
<path d="M752.992 324H749.152V300H770.273V324H766.432V303.744H752.992V324Z" fill="white"/>
<path d="M793.918 324H783.07L777.454 318.24V305.76L783.07 300H793.918L799.534 305.76V318.24L793.918 324ZM781.294 316.656L784.75 320.16H792.238L795.694 316.656V307.344L792.238 303.84H784.75L781.294 307.344V316.656Z" fill="white"/>
<path d="M822.555 324H811.851L806.235 319.296V315.888H810.075V317.568L813.243 320.208H821.307L824.475 318.096V315.264L821.787 313.44H813.099V310.08H821.787L824.475 308.496V305.904L821.307 303.792H813.723L810.555 306.432V308.112H806.715V304.704L812.331 300H822.555L828.315 303.984V310.08L825.195 311.664V311.856L828.315 313.44V320.016L822.555 324Z" fill="white"/>
<path d="M839.048 324H835.496V300H839.336V316.704H839.72L852.392 300H856.616V324H852.776V306.144H852.392L839.048 324Z" fill="white"/>
<path d="M876.805 324H872.87L872.966 303.696H862.838V300H886.838V303.696H876.709L876.805 324Z" fill="white"/>
<path d="M896.611 324H893.059V300H896.899V316.704H897.283L909.955 300H914.179V324H910.339V306.144H909.955L896.611 324Z" fill="white"/>
<path d="M937.68 324H921.84V300H938.256L942.96 303.312V309.6L940.176 311.568V311.712L943.44 313.68V320.016L937.68 324ZM925.68 303.744V309.792H936.816L939.12 308.064V305.376L936.816 303.744H925.68ZM925.68 313.68V320.16H936.624L939.6 318.096V315.792L936.624 313.68H925.68Z" fill="white"/>
<path d="M954.461 324H950.621V300H954.461V309.84H967.901V300H971.741V324H967.901V313.584H954.461V324Z" fill="white"/>
<path d="M988.331 324H979.402V300H983.242V308.16H988.378L993.802 311.856V320.016L988.331 324ZM1000.52 324H996.779V300H1000.52V324ZM983.242 312V320.16H987.37L990.058 318.192V313.728L987.37 312H983.242Z" fill="white"/>
<path d="M1024.89 324H1013.32L1007.7 318.24V305.76L1013.32 300H1024.41L1030.02 305.76V313.776H1011.54V316.656L1015 320.16H1023.21L1026.66 316.656L1029.93 318.816L1024.89 324ZM1011.54 307.344V310.128H1026.18V307.344L1022.73 303.84H1015L1011.54 307.344Z" fill="white"/>
<path d="M5.256 348H16.824L22.44 353.76V366.24L16.824 372H5.256L0.215995 366.816L3.48 364.656L6.936 368.16H15.144L18.552 364.8V361.584H7.656V357.936H18.552V355.344L15.144 351.84H6.888L3.48 355.344L0.119995 353.28L5.256 348Z" fill="white"/>
<path d="M33.4612 372H29.6212V348H34.6612L40.0372 359.52H40.3252L45.7012 348H50.7412V372H46.9012L47.1412 354.048H46.9492L42.3412 363.84H38.0212L33.4132 354.048H33.2212L33.4612 372Z" fill="white"/>
<path d="M74.3865 372H63.5385L57.9225 366.24V353.76L63.5385 348H74.3865L80.0025 353.76V366.24L74.3865 372ZM61.7625 364.656L65.2185 368.16H72.7065L76.1625 364.656V355.344L72.7065 351.84H65.2185L61.7625 355.344V364.656Z" fill="white"/>
<path d="M110.944 377.76H107.104V372H87.1837V348H91.0237V368.256H103.84V348H107.68V368.448H110.944V377.76Z" fill="white"/>
<path d="M119.517 372H115.965V348H119.805V364.704H120.189L132.861 348H137.085V372H133.245V354.144H132.861L119.517 372Z" fill="white"/>
<path d="M148.298 372H144.746V348H148.586V364.704H148.97L161.642 348H165.866V372H162.026V354.144H161.642L148.298 372Z" fill="white"/>
<path d="M182.455 372H176.887V366.336H182.455V372Z" fill="white"/>
</svg>
