<svg width="585" height="32" viewBox="0 0 585 32" fill="none" xmlns="http://www.w3.org/2000/svg">
<path d="M19.7 26H6.75L0.8 19.85V6.85L6.75 0.75H19.7L25.05 6.25L20.45 9.05L17.45 5.95H9L6.05 9.05V17.75L9 20.8H17.45L20.45 17.7L24.9 20.65L19.7 26ZM54.0305 26H41.9305L35.9805 19.85V6.85L41.9305 0.75H54.0305L59.9805 6.85V19.85L54.0305 26ZM41.1805 17.7L44.1805 20.8H51.7805L54.7805 17.7V9.05L51.7805 5.95H44.1805L41.1805 9.05V17.7ZM90.0109 26H76.9109L70.9609 19.85V6.85L76.9109 0.75H89.2609L95.2109 6.85V15.55H76.0109V17.95L78.9609 20.85H87.7609L90.7109 17.85L95.1109 20.75L90.0109 26ZM76.0109 8.8V11.1H90.1609V8.8L87.2609 5.9H78.9609L76.0109 8.8ZM109.241 32H104.041V20.8H107.691L109.191 16.5V0.75H128.091V20.8H131.841V32H126.641V26H109.241V32ZM114.391 17.05L113.141 20.8H122.841V5.85H114.391V17.05ZM146.322 26H141.422V0.75H146.622V17.15H147.022L159.022 0.75H164.422V26H159.222V8.7H158.822L146.322 26ZM181.352 26H176.102V0.75H181.352V10.55H194.452V0.75H199.702V26H194.452V15.7H181.352V26ZM216.283 26H211.383V0.75H216.583V17.15H216.983L228.983 0.75H234.383V26H229.183V8.7H228.783L216.283 26ZM284.144 32H278.944V20.8H282.594L284.094 16.5V0.75H302.994V20.8H306.744V32H301.544V26H284.144V32ZM289.294 17.05L288.044 20.8H297.744V5.85H289.294V17.05ZM333.574 26H316.324V1H334.074L339.274 4.7V11.15L336.074 13.05V13.2L339.524 15.15V21.85L333.574 26ZM321.474 6V11H332.024L334.124 9.45V7.5L332.024 6H321.474ZM321.474 15.55V20.95H331.924L334.374 19.2V17.3L331.924 15.55H321.474ZM369.855 26H356.755L350.805 19.85V6.85L356.755 0.75H369.105L375.055 6.85V15.55H355.855V17.95L358.805 20.85H367.605L370.555 17.85L374.955 20.75L369.855 26ZM355.855 8.8V11.1H370.005V8.8L367.105 5.9H358.805L355.855 8.8ZM444.566 26H439.416V16.1H439.216L436.616 18.65H425.866L420.466 12.75V0.75H425.716V10.75L428.166 13.45H435.116L439.316 9.75V0.75H444.566V26ZM471.396 26H461.696L455.746 19.85V6.85L461.696 0.75H471.596L474.496 2.95H474.646L474.896 0.75H479.246V26H474.796L474.746 23.5H474.596L471.396 26ZM460.896 17.7L463.946 20.85H470.296L474.196 17.8V8.9L470.096 5.9H463.946L460.896 9.05V17.7ZM509.427 26H496.477L490.527 19.85V6.85L496.477 0.75H509.427L514.777 6.25L510.177 9.05L507.177 5.95H498.727L495.777 9.05V17.75L498.727 20.8H507.177L510.177 17.7L514.627 20.65L509.427 26ZM540.407 26H535.007L535.207 5.9H524.407V0.75H551.007V5.9H540.257L540.407 26ZM566.088 26H561.188V0.75H566.388V17.15H566.788L578.788 0.75H584.188V26H578.988V8.7H578.588L566.088 26Z" fill="white"/>
</svg>
