<svg width="102" height="100" viewBox="0 0 102 100" fill="none" xmlns="http://www.w3.org/2000/svg">
<path d="M35.2207 15.4098C31.1036 17.8022 27.2751 21.0857 23.8038 24.1828C18.8541 28.5989 13.6354 33.784 9.78623 39.0693C6.23396 43.947 5.66547 49.8133 4.94128 55.526C4.1925 61.4327 3.62771 65.9693 6.39776 71.5595C7.63141 74.0491 8.9292 76.5894 10.8237 78.7304C12.5834 80.7192 14.8335 82.1276 16.7999 83.9131C19.2477 86.1358 21.4375 87.8323 24.7327 88.8625C28.4493 90.0244 32.3757 90.5823 36.1618 91.5148C45.8224 93.8941 56.2554 95.2434 66.2031 95.8415C73.9482 96.3072 81.8201 93.9462 86.7836 88.2302C88.6403 86.092 89.3132 83.1929 90.2018 80.6279C91.294 77.4751 92.165 74.2854 92.9572 71.0532C94.2253 65.8796 95.2006 60.797 95.5182 55.4919C95.74 51.7859 96.8487 48.1005 96.8052 44.3794C96.7502 39.6809 92.7223 34.4292 89.6939 30.8692C85.2033 25.5904 79.6563 21.1278 73.6351 17.3726C66.5996 12.9849 59.3798 8.35959 51.1591 6.1731C49.1046 5.62665 44.2192 3.98658 42.3201 5.81171C40.9214 7.15589 41.2146 8.69316 38.9272 9.21421" stroke="white" stroke-width="3" stroke-linecap="round"/>
<path d="M44.0379 33.3562C45.5068 40.2325 44.0625 49.0876 43.2316 56.228C43.1972 56.5229 42.8944 58.7861 43.4878 57.8761C44.2932 56.6407 46.6986 57.6617 47.6852 57.7868C49.4916 58.0158 51.3141 58.0214 53.1315 58.1399C54.1465 58.206 55.589 57.7606 56.5211 58.4098C57.1431 58.843 56.9803 58.9709 56.7058 57.9716C56.2667 56.3723 55.6752 55.2979 55.9184 53.3799C56.7658 46.6949 57.1204 40.229 57.9681 33.542C58.1212 32.3341 53.6958 32.3026 52.9742 32.2697C51.4936 32.2024 50.0482 32.2006 48.5751 32.0139C47.5002 31.8776 46.5663 32.3984 45.5707 32.2722" stroke="white" stroke-width="3" stroke-linecap="round"/>
<path d="M45.2476 67.4148C45.5768 70.4031 46.1029 74.3142 45.466 77.479C45.3912 77.8505 44.7203 75.5274 44.6702 75.2662C44.5073 74.4181 44.0642 73.5623 44.1318 72.621C44.224 71.3363 44.4627 70.0107 44.6249 68.7309" stroke="white" stroke-width="3" stroke-linecap="round"/>
<path d="M44.9254 66.1123C46.2717 65.788 47.4513 65.6999 48.8775 65.8807C50.9383 66.142 53.0072 66.3553 55.0616 66.6647C55.9129 66.7929 56.0063 67.4693 56.0659 68.8065C56.1155 69.9189 56.2489 71.5953 56.1091 72.6984C55.974 73.7636 55.6821 79.0499 54.8118 78.6994C53.7139 78.2573 52.972 77.0722 51.765 76.8685C49.2249 76.4398 46.7178 75.8624 44.1598 75.5381" stroke="white" stroke-width="3" stroke-linecap="round"/>
</svg>
