<svg width="930" height="207" viewBox="0 0 930 207" fill="none" xmlns="http://www.w3.org/2000/svg">
<path d="M8.39988 198H5.19988V178H22.7999V198H19.5999V181.12H8.39988V198Z" fill="white"/>
<path d="M43.1043 198H33.4643L28.7843 193.2V182.8L33.4643 178H43.1043L47.3843 182.4L44.5843 184.12L41.7443 181.2H34.8643L32.0243 184.12V192L34.8643 194.8H41.7043L44.5843 191.88L47.3043 193.68L43.1043 198Z" fill="white"/>
<path d="M56.1286 198H53.1686V178H56.3686V191.92H56.6886L67.2486 178H70.7686V198H67.5686V183.12H67.2486L56.1286 198Z" fill="white"/>
<path d="M78.673 198H76.153V195.48L84.193 187.88L76.913 180.52V178H79.433L86.073 185.36H86.233L92.873 178H95.393V180.52L88.113 187.88L95.753 195.48V198H93.233L86.233 190.4H86.073L78.673 198Z" fill="white"/>
<path d="M114.457 198H105.417L100.737 193.2V182.8L105.417 178H114.457L119.137 182.8V193.2L114.457 198ZM103.937 191.88L106.817 194.8H113.057L115.937 191.88V184.12L113.057 181.2H106.817L103.937 184.12V191.88Z" fill="white"/>
<path d="M127.122 198H123.122V194.8H125.282L126.722 192.36V178H142.722V198H139.522V181.08H129.922V193.2L127.122 198Z" fill="white"/>
<path d="M162.426 198H153.386L148.706 193.2V182.8L153.386 178H162.426L167.106 182.8V193.2L162.426 198ZM151.906 191.88L154.786 194.8H161.026L163.906 191.88V184.12L161.026 181.2H154.786L151.906 184.12V191.88Z" fill="white"/>
<path d="M178.29 198H175.091V178H191.891V181.12H178.29V198Z" fill="white"/>
<path d="M200.035 198H197.075V178H200.275V191.92H200.595L211.155 178H214.675V198H211.475V183.12H211.155L200.035 198Z" fill="white"/>
<path d="M238.659 198H235.459V189.32H235.299L232.779 191.6H224.539L220.659 187.28V178H223.859V186.04L225.979 188.4H231.499L235.459 184.96V178H238.659V198Z" fill="white"/>
<path d="M258.964 198H249.324L244.644 193.2V182.8L249.324 178H258.564L263.244 182.8V189.48H247.844V191.88L250.724 194.8H257.564L260.444 191.88L263.164 193.68L258.964 198ZM247.844 184.12V186.44H260.044V184.12L257.164 181.2H250.724L247.844 184.12Z" fill="white"/>
<path d="M282.948 198H273.308L268.628 193.2V182.8L273.308 178H282.948L287.228 182.4L284.428 184.12L281.588 181.2H274.708L271.868 184.12V192L274.708 194.8H281.548L284.428 191.88L287.148 193.68L282.948 198Z" fill="white"/>
<path d="M304.012 187.8V187.96L312.212 195.68V198H309.892L301.052 189.56H296.212V197.92H293.012V178H296.212V186.36H301.052L309.372 178H311.692V180.32L304.012 187.8Z" fill="white"/>
<path d="M319.957 198H316.997V178H320.197V191.92H320.517L331.077 178H334.597V198H331.397V183.12H331.077L319.957 198Z" fill="white"/>
<path d="M343.941 198H340.981V178H344.181V191.92H344.501L355.061 178H358.581V198H355.381V183.12H355.061L343.941 198ZM353.381 175.2H346.221L343.301 172.24V168.64H346.421V171.16L347.461 172.2H352.141L353.181 171.12V168.64H356.301V172.24L353.381 175.2Z" fill="white"/>
<path d="M408.75 202.8H405.55V198H388.95V178H392.15V194.88H402.83V178H406.03V195.04H408.75V202.8Z" fill="white"/>
<path d="M426.854 198H417.214L412.534 193.2V182.8L417.214 178H426.454L431.134 182.8V189.48H415.734V191.88L418.614 194.8H425.454L428.334 191.88L431.054 193.68L426.854 198ZM415.734 184.12V186.44H427.934V184.12L425.054 181.2H418.614L415.734 184.12Z" fill="white"/>
<path d="M440.119 198H436.919V178H440.119V186.2H451.319V178H454.519V198H451.319V189.32H440.119V198Z" fill="white"/>
<path d="M471.343 198H468.063L468.143 181.08H459.703V178H479.703V181.08H471.263L471.343 198Z" fill="white"/>
<path d="M488.167 206.4H484.887V178H488.167V180.24H488.327L490.927 178H498.207L502.887 182.8V193.2L498.207 198H490.607L488.327 196.04H488.167V206.4ZM488.087 192.08L491.767 194.8H496.807L499.687 191.88V184.12L496.807 181.2H491.887L488.087 183.92V192.08Z" fill="white"/>
<path d="M534.056 202.8H530.856V194.8H533.656L534.856 191.36V178H549.656V194.8H552.456V202.8H549.256V198H534.056V202.8ZM538.056 191.8L537.056 194.8H546.456V181.12H538.056V191.8Z" fill="white"/>
<path d="M558.841 198H554.841V194.8H557L558.44 192.36V178H574.44V198H571.24V181.08H561.641V193.2L558.841 198Z" fill="white"/>
<path d="M583.025 198H580.505V195.68L587.705 190.84V190.68H585.105L580.425 187.88V181.24L584.945 178H598.425V198H595.225V190.68H592.465L583.025 198ZM583.625 186.16L585.945 187.6H595.225V181.2H585.945L583.625 182.88V186.16Z" fill="white"/>
<path d="M631.994 198H628.794V178H646.394V198H643.194V181.12H631.994V198Z" fill="white"/>
<path d="M664.418 198H657.058L652.378 193.2V182.8L657.058 178H664.578L667.098 179.92H667.258L667.498 178H670.378V198H667.498V195.76H667.338L664.418 198ZM655.578 191.88L658.458 194.8H663.498L667.178 192.08V183.92L663.378 181.2H658.458L655.578 184.12V191.88Z" fill="white"/>
<path d="M689.962 198H681.042L676.362 194.08V191.24H679.562V192.64L682.202 194.84H688.922L691.562 193.08V190.72L689.322 189.2H682.082V186.4H689.322L691.562 185.08V182.92L688.922 181.16H682.602L679.962 183.36V184.76H676.762V181.92L681.442 178H689.962L694.762 181.32V186.4L692.162 187.72V187.88L694.762 189.2V194.68L689.962 198Z" fill="white"/>
<path d="M702.747 198H698.747V194.8H700.907L702.347 192.36V178H718.347V198H715.147V181.08H705.547V193.2L702.747 198Z" fill="white"/>
<path d="M738.051 198H729.011L724.331 193.2V182.8L729.011 178H738.051L742.731 182.8V193.2L738.051 198ZM727.531 191.88L730.411 194.8H736.651L739.531 191.88V184.12L736.651 181.2H730.411L727.531 184.12V191.88Z" fill="white"/>
<path d="M761.916 198H748.716V178H762.396L766.315 180.76V186L763.995 187.64V187.76L766.716 189.4V194.68L761.916 198ZM751.916 181.12V186.16H761.195L763.115 184.72V182.48L761.195 181.12H751.916ZM751.916 189.4V194.8H761.036L763.516 193.08V191.16L761.036 189.4H751.916Z" fill="white"/>
<path d="M844.399 49.0892L884.69 0L901.106 16.4166L852.152 56.8415L844.399 49.0892Z" fill="white"/>
<path d="M866 75.4319L930 69V93L866 86.7652V75.4319Z" fill="white"/>
<path d="M852.017 109.293L901.106 149.583L884.69 166L844.265 117.046L852.017 109.293Z" fill="white"/>
<path d="M18.7299 124H0.879883V38.15H81.1199V124H63.2699V55.49H18.7299V124Z" fill="white"/>
<path d="M163.503 124H122.363L102.133 103.09V58.89L122.363 38.15H163.503L183.733 58.89V103.09L163.503 124ZM119.813 95.78L130.013 106.32H155.853L166.053 95.78V66.37L155.853 55.83H130.013L119.813 66.37V95.78Z" fill="white"/>
<path d="M215.287 144.4H197.607V106.32H210.017L215.117 91.7V38.15H279.377V106.32H292.127V144.4H274.447V124H215.287V144.4ZM232.797 93.57L228.547 106.32H261.527V55.49H232.797V93.57Z" fill="white"/>
<path d="M317.221 124H303.791V110.57L336.261 80.99L306.681 51.41V38.15H319.941L346.801 66.71H347.481L374.511 38.15H387.941V51.41L358.191 80.99L389.811 110.57V124H376.381L347.481 94.42H346.801L317.221 124Z" fill="white"/>
<path d="M469.304 124H428.164L407.934 103.09V58.89L428.164 38.15H469.304L489.534 58.89V103.09L469.304 124ZM425.614 95.78L435.814 106.32H461.654L471.854 95.78V66.37L461.654 55.83H435.814L425.614 66.37V95.78Z" fill="white"/>
<path d="M521.088 144.4H503.408V106.32H515.818L520.918 91.7V38.15H585.178V106.32H597.928V144.4H580.248V124H521.088V144.4ZM538.598 93.57L534.348 106.32H567.328V55.49H538.598V93.57Z" fill="white"/>
<path d="M630.161 124H613.501V38.15H631.181V93.91H632.541L673.341 38.15H691.701V124H674.021V65.18H672.661L630.161 124Z" fill="white"/>
<path d="M763.715 124H745.355L746.035 55.66H709.315V38.15H799.755V55.66H763.205L763.715 124Z" fill="white"/>
</svg>
